<mxfile host="app.diagrams.net" agent="Mozilla/5.0 (Windows NT 10.0; Win64; x64) AppleWebKit/537.36 (KHTML, like Gecko) Chrome/133.0.0.0 Safari/537.36" version="26.0.16" pages="4">
  <diagram name="Ch6-C01If문" id="0QQuftoLKrZfVguLKou1">
    <mxGraphModel dx="3600" dy="4116" grid="1" gridSize="10" guides="1" tooltips="1" connect="1" arrows="1" fold="1" page="0" pageScale="1" pageWidth="827" pageHeight="1169" math="0" shadow="0">
      <root>
        <mxCell id="0" />
        <mxCell id="1" parent="0" />
        <mxCell id="jg6SUQsdEgEUDbtEuBOz-22" style="edgeStyle=none;curved=1;rounded=0;orthogonalLoop=1;jettySize=auto;html=1;entryX=0.5;entryY=0;entryDx=0;entryDy=0;fontSize=12;startSize=8;endSize=8;" edge="1" parent="1" source="jg6SUQsdEgEUDbtEuBOz-5" target="jg6SUQsdEgEUDbtEuBOz-15">
          <mxGeometry relative="1" as="geometry" />
        </mxCell>
        <mxCell id="jg6SUQsdEgEUDbtEuBOz-16" style="edgeStyle=none;curved=1;rounded=0;orthogonalLoop=1;jettySize=auto;html=1;exitX=1;exitY=0.5;exitDx=0;exitDy=0;exitPerimeter=0;fontSize=12;startSize=8;endSize=8;" edge="1" parent="1" source="jg6SUQsdEgEUDbtEuBOz-7">
          <mxGeometry relative="1" as="geometry">
            <mxPoint x="-320.0000000000001" y="-210" as="targetPoint" />
          </mxGeometry>
        </mxCell>
        <mxCell id="jg6SUQsdEgEUDbtEuBOz-17" style="edgeStyle=none;curved=1;rounded=0;orthogonalLoop=1;jettySize=auto;html=1;entryX=0.5;entryY=0;entryDx=0;entryDy=0;fontSize=12;startSize=8;endSize=8;" edge="1" parent="1" source="jg6SUQsdEgEUDbtEuBOz-7">
          <mxGeometry relative="1" as="geometry">
            <mxPoint x="-420" y="-130" as="targetPoint" />
          </mxGeometry>
        </mxCell>
        <mxCell id="jg6SUQsdEgEUDbtEuBOz-21" style="edgeStyle=none;curved=1;rounded=0;orthogonalLoop=1;jettySize=auto;html=1;entryX=0.5;entryY=0;entryDx=0;entryDy=0;entryPerimeter=0;fontSize=12;startSize=8;endSize=8;" edge="1" parent="1" source="jg6SUQsdEgEUDbtEuBOz-15" target="jg6SUQsdEgEUDbtEuBOz-7">
          <mxGeometry relative="1" as="geometry" />
        </mxCell>
        <mxCell id="jg6SUQsdEgEUDbtEuBOz-24" style="edgeStyle=none;curved=0;rounded=0;orthogonalLoop=1;jettySize=auto;html=1;fontSize=12;startSize=8;endSize=8;" edge="1" parent="1" source="jg6SUQsdEgEUDbtEuBOz-23">
          <mxGeometry relative="1" as="geometry">
            <mxPoint x="-350" y="-95" as="targetPoint" />
            <Array as="points">
              <mxPoint x="-270" y="-95" />
            </Array>
          </mxGeometry>
        </mxCell>
        <mxCell id="jg6SUQsdEgEUDbtEuBOz-5" value="시작" style="strokeWidth=2;html=1;shape=mxgraph.flowchart.terminator;whiteSpace=wrap;" vertex="1" parent="1">
          <mxGeometry x="-470" y="-460" width="100" height="60" as="geometry" />
        </mxCell>
        <mxCell id="jg6SUQsdEgEUDbtEuBOz-6" value="끝" style="strokeWidth=2;html=1;shape=mxgraph.flowchart.terminator;whiteSpace=wrap;" vertex="1" parent="1">
          <mxGeometry x="-470" y="320" width="100" height="60" as="geometry" />
        </mxCell>
        <mxCell id="jg6SUQsdEgEUDbtEuBOz-7" value="age&amp;gt;=8" style="strokeWidth=2;html=1;shape=mxgraph.flowchart.decision;whiteSpace=wrap;" vertex="1" parent="1">
          <mxGeometry x="-470" y="-260" width="100" height="100" as="geometry" />
        </mxCell>
        <mxCell id="jg6SUQsdEgEUDbtEuBOz-23" value="&lt;div&gt;&lt;span style=&quot;background-color: transparent; color: light-dark(rgb(0, 0, 0), rgb(255, 255, 255));&quot;&gt;학교에 다닙니다&lt;/span&gt;&lt;/div&gt;" style="strokeWidth=2;html=1;shape=mxgraph.flowchart.document2;whiteSpace=wrap;size=0.25;" vertex="1" parent="1">
          <mxGeometry x="-320" y="-240" width="100" height="60" as="geometry" />
        </mxCell>
        <mxCell id="jg6SUQsdEgEUDbtEuBOz-25" value="yes" style="text;html=1;align=center;verticalAlign=middle;resizable=0;points=[];autosize=1;strokeColor=none;fillColor=none;fontSize=16;" vertex="1" parent="1">
          <mxGeometry x="-373" y="-243" width="50" height="30" as="geometry" />
        </mxCell>
        <mxCell id="jg6SUQsdEgEUDbtEuBOz-26" value="no" style="text;html=1;align=center;verticalAlign=middle;resizable=0;points=[];autosize=1;strokeColor=none;fillColor=none;fontSize=16;" vertex="1" parent="1">
          <mxGeometry x="-421" y="-162" width="40" height="30" as="geometry" />
        </mxCell>
        <mxCell id="jg6SUQsdEgEUDbtEuBOz-15" value="나이 입력" style="shape=parallelogram;perimeter=parallelogramPerimeter;whiteSpace=wrap;html=1;fixedSize=1;" vertex="1" parent="1">
          <mxGeometry x="-480" y="-350" width="120" height="60" as="geometry" />
        </mxCell>
        <mxCell id="jg6SUQsdEgEUDbtEuBOz-29" style="edgeStyle=none;curved=1;rounded=0;orthogonalLoop=1;jettySize=auto;html=1;exitX=1;exitY=0.5;exitDx=0;exitDy=0;exitPerimeter=0;fontSize=12;startSize=8;endSize=8;" edge="1" source="jg6SUQsdEgEUDbtEuBOz-36" parent="1">
          <mxGeometry relative="1" as="geometry">
            <mxPoint x="-320.0000000000001" y="30" as="targetPoint" />
          </mxGeometry>
        </mxCell>
        <mxCell id="jg6SUQsdEgEUDbtEuBOz-30" style="edgeStyle=none;curved=1;rounded=0;orthogonalLoop=1;jettySize=auto;html=1;entryX=0.5;entryY=0;entryDx=0;entryDy=0;fontSize=12;startSize=8;endSize=8;" edge="1" source="jg6SUQsdEgEUDbtEuBOz-36" parent="1">
          <mxGeometry relative="1" as="geometry">
            <mxPoint x="-420" y="110" as="targetPoint" />
          </mxGeometry>
        </mxCell>
        <mxCell id="jg6SUQsdEgEUDbtEuBOz-31" style="edgeStyle=none;curved=0;rounded=0;orthogonalLoop=1;jettySize=auto;html=1;fontSize=12;startSize=8;endSize=8;entryX=1.005;entryY=0.571;entryDx=0;entryDy=0;entryPerimeter=0;" edge="1" source="jg6SUQsdEgEUDbtEuBOz-32" parent="1">
          <mxGeometry relative="1" as="geometry">
            <mxPoint x="-349.29999999999995" y="149.97000000000003" as="targetPoint" />
            <Array as="points">
              <mxPoint x="-270" y="150" />
            </Array>
          </mxGeometry>
        </mxCell>
        <mxCell id="jg6SUQsdEgEUDbtEuBOz-32" value="학교에 다니지&lt;div&gt;않습니다.&lt;/div&gt;" style="strokeWidth=2;html=1;shape=mxgraph.flowchart.document2;whiteSpace=wrap;size=0.25;" vertex="1" parent="1">
          <mxGeometry x="-320" width="100" height="60" as="geometry" />
        </mxCell>
        <mxCell id="jg6SUQsdEgEUDbtEuBOz-33" value="yes" style="text;html=1;align=center;verticalAlign=middle;resizable=0;points=[];autosize=1;strokeColor=none;fillColor=none;fontSize=16;" vertex="1" parent="1">
          <mxGeometry x="-373" y="-3" width="50" height="30" as="geometry" />
        </mxCell>
        <mxCell id="jg6SUQsdEgEUDbtEuBOz-34" value="no" style="text;html=1;align=center;verticalAlign=middle;resizable=0;points=[];autosize=1;strokeColor=none;fillColor=none;fontSize=16;" vertex="1" parent="1">
          <mxGeometry x="-422" y="74" width="40" height="30" as="geometry" />
        </mxCell>
        <mxCell id="jg6SUQsdEgEUDbtEuBOz-36" value="age&amp;lt;8" style="strokeWidth=2;html=1;shape=mxgraph.flowchart.decision;whiteSpace=wrap;" vertex="1" parent="1">
          <mxGeometry x="-470" y="-20" width="100" height="100" as="geometry" />
        </mxCell>
        <mxCell id="jg6SUQsdEgEUDbtEuBOz-37" style="edgeStyle=none;curved=1;rounded=0;orthogonalLoop=1;jettySize=auto;html=1;entryX=0.5;entryY=0;entryDx=0;entryDy=0;entryPerimeter=0;fontSize=12;startSize=8;endSize=8;" edge="1" parent="1" target="jg6SUQsdEgEUDbtEuBOz-36">
          <mxGeometry relative="1" as="geometry">
            <mxPoint x="-420" y="-60" as="sourcePoint" />
          </mxGeometry>
        </mxCell>
        <mxCell id="jg6SUQsdEgEUDbtEuBOz-39" value="프로그램 종료" style="shape=parallelogram;perimeter=parallelogramPerimeter;whiteSpace=wrap;html=1;fixedSize=1;" vertex="1" parent="1">
          <mxGeometry x="-480" y="220" width="120" height="60" as="geometry" />
        </mxCell>
        <mxCell id="jg6SUQsdEgEUDbtEuBOz-42" style="edgeStyle=none;curved=1;rounded=0;orthogonalLoop=1;jettySize=auto;html=1;entryX=0.5;entryY=0;entryDx=0;entryDy=0;fontSize=12;startSize=8;endSize=8;" edge="1" parent="1" source="jg6SUQsdEgEUDbtEuBOz-40" target="jg6SUQsdEgEUDbtEuBOz-39">
          <mxGeometry relative="1" as="geometry" />
        </mxCell>
        <mxCell id="jg6SUQsdEgEUDbtEuBOz-40" value="&lt;span style=&quot;color: light-dark(rgb(0, 0, 0), rgb(255, 255, 255)); background-color: transparent;&quot;&gt;두번째 if 코드&amp;nbsp;&lt;/span&gt;&lt;span style=&quot;color: light-dark(rgb(0, 0, 0), rgb(255, 255, 255)); background-color: transparent;&quot;&gt;블럭&lt;/span&gt;&lt;div&gt;&lt;span style=&quot;color: light-dark(rgb(0, 0, 0), rgb(255, 255, 255)); background-color: transparent;&quot;&gt;종료&lt;/span&gt;&lt;/div&gt;" style="shape=parallelogram;perimeter=parallelogramPerimeter;whiteSpace=wrap;html=1;fixedSize=1;" vertex="1" parent="1">
          <mxGeometry x="-490" y="120" width="140" height="60" as="geometry" />
        </mxCell>
        <mxCell id="jg6SUQsdEgEUDbtEuBOz-41" value="&lt;span style=&quot;color: light-dark(rgb(0, 0, 0), rgb(255, 255, 255)); background-color: transparent;&quot;&gt;첫번째 if 코드&amp;nbsp;&lt;/span&gt;&lt;span style=&quot;color: light-dark(rgb(0, 0, 0), rgb(255, 255, 255)); background-color: transparent;&quot;&gt;블럭&lt;/span&gt;&lt;div&gt;&lt;span style=&quot;color: light-dark(rgb(0, 0, 0), rgb(255, 255, 255)); background-color: transparent;&quot;&gt;종료&lt;/span&gt;&lt;/div&gt;" style="shape=parallelogram;perimeter=parallelogramPerimeter;whiteSpace=wrap;html=1;fixedSize=1;" vertex="1" parent="1">
          <mxGeometry x="-490" y="-120" width="140" height="60" as="geometry" />
        </mxCell>
        <mxCell id="jg6SUQsdEgEUDbtEuBOz-43" style="edgeStyle=none;curved=1;rounded=0;orthogonalLoop=1;jettySize=auto;html=1;entryX=0.5;entryY=0;entryDx=0;entryDy=0;entryPerimeter=0;fontSize=12;startSize=8;endSize=8;" edge="1" parent="1" source="jg6SUQsdEgEUDbtEuBOz-39" target="jg6SUQsdEgEUDbtEuBOz-6">
          <mxGeometry relative="1" as="geometry" />
        </mxCell>
        <mxCell id="jg6SUQsdEgEUDbtEuBOz-44" value="01 단순if문" style="shape=umlFrame;whiteSpace=wrap;html=1;pointerEvents=0;width=100;height=40;" vertex="1" parent="1">
          <mxGeometry x="-600" y="-520" width="420" height="950" as="geometry" />
        </mxCell>
        <mxCell id="jg6SUQsdEgEUDbtEuBOz-45" style="edgeStyle=none;curved=1;rounded=0;orthogonalLoop=1;jettySize=auto;html=1;entryX=0.5;entryY=0;entryDx=0;entryDy=0;fontSize=12;startSize=8;endSize=8;" edge="1" source="jg6SUQsdEgEUDbtEuBOz-50" target="jg6SUQsdEgEUDbtEuBOz-56" parent="1">
          <mxGeometry relative="1" as="geometry" />
        </mxCell>
        <mxCell id="jg6SUQsdEgEUDbtEuBOz-46" style="edgeStyle=none;curved=1;rounded=0;orthogonalLoop=1;jettySize=auto;html=1;exitX=1;exitY=0.5;exitDx=0;exitDy=0;exitPerimeter=0;fontSize=12;startSize=8;endSize=8;entryX=0;entryY=0.5;entryDx=0;entryDy=0;entryPerimeter=0;" edge="1" source="jg6SUQsdEgEUDbtEuBOz-52" parent="1" target="jg6SUQsdEgEUDbtEuBOz-53">
          <mxGeometry relative="1" as="geometry">
            <mxPoint x="199.9999999999999" y="-210" as="targetPoint" />
          </mxGeometry>
        </mxCell>
        <mxCell id="jg6SUQsdEgEUDbtEuBOz-50" value="시작" style="strokeWidth=2;html=1;shape=mxgraph.flowchart.terminator;whiteSpace=wrap;" vertex="1" parent="1">
          <mxGeometry x="50" y="-460" width="100" height="60" as="geometry" />
        </mxCell>
        <mxCell id="jg6SUQsdEgEUDbtEuBOz-51" value="끝" style="strokeWidth=2;html=1;shape=mxgraph.flowchart.terminator;whiteSpace=wrap;" vertex="1" parent="1">
          <mxGeometry x="50" y="320" width="100" height="60" as="geometry" />
        </mxCell>
        <mxCell id="jg6SUQsdEgEUDbtEuBOz-52" value="age&amp;gt;=8" style="strokeWidth=2;html=1;shape=mxgraph.flowchart.decision;whiteSpace=wrap;" vertex="1" parent="1">
          <mxGeometry x="50" y="-90" width="100" height="100" as="geometry" />
        </mxCell>
        <mxCell id="jg6SUQsdEgEUDbtEuBOz-73" style="edgeStyle=none;curved=0;rounded=0;orthogonalLoop=1;jettySize=auto;html=1;fontSize=12;startSize=8;endSize=8;entryX=0.872;entryY=0.575;entryDx=0;entryDy=0;entryPerimeter=0;" edge="1" parent="1" source="jg6SUQsdEgEUDbtEuBOz-53" target="jg6SUQsdEgEUDbtEuBOz-65">
          <mxGeometry relative="1" as="geometry">
            <mxPoint x="150" y="200" as="targetPoint" />
            <Array as="points">
              <mxPoint x="250" y="160" />
            </Array>
          </mxGeometry>
        </mxCell>
        <mxCell id="jg6SUQsdEgEUDbtEuBOz-53" value="&lt;div&gt;&lt;span style=&quot;background-color: transparent; color: light-dark(rgb(0, 0, 0), rgb(255, 255, 255));&quot;&gt;학교에 다닙니다&lt;/span&gt;&lt;/div&gt;" style="strokeWidth=2;html=1;shape=mxgraph.flowchart.document2;whiteSpace=wrap;size=0.25;" vertex="1" parent="1">
          <mxGeometry x="200" y="-70" width="100" height="60" as="geometry" />
        </mxCell>
        <mxCell id="jg6SUQsdEgEUDbtEuBOz-54" value="yes" style="text;html=1;align=center;verticalAlign=middle;resizable=0;points=[];autosize=1;strokeColor=none;fillColor=none;fontSize=16;" vertex="1" parent="1">
          <mxGeometry x="147" y="-69" width="50" height="30" as="geometry" />
        </mxCell>
        <mxCell id="jg6SUQsdEgEUDbtEuBOz-55" value="no" style="text;html=1;align=center;verticalAlign=middle;resizable=0;points=[];autosize=1;strokeColor=none;fillColor=none;fontSize=16;" vertex="1" parent="1">
          <mxGeometry x="20" y="-69" width="40" height="30" as="geometry" />
        </mxCell>
        <mxCell id="jg6SUQsdEgEUDbtEuBOz-80" style="edgeStyle=none;curved=1;rounded=0;orthogonalLoop=1;jettySize=auto;html=1;fontSize=12;startSize=8;endSize=8;" edge="1" parent="1" source="jg6SUQsdEgEUDbtEuBOz-56" target="jg6SUQsdEgEUDbtEuBOz-52">
          <mxGeometry relative="1" as="geometry" />
        </mxCell>
        <mxCell id="jg6SUQsdEgEUDbtEuBOz-56" value="나이 입력" style="shape=parallelogram;perimeter=parallelogramPerimeter;whiteSpace=wrap;html=1;fixedSize=1;" vertex="1" parent="1">
          <mxGeometry x="40" y="-265" width="120" height="60" as="geometry" />
        </mxCell>
        <mxCell id="jg6SUQsdEgEUDbtEuBOz-65" value="프로그램 종료" style="shape=parallelogram;perimeter=parallelogramPerimeter;whiteSpace=wrap;html=1;fixedSize=1;" vertex="1" parent="1">
          <mxGeometry x="40" y="125" width="120" height="60" as="geometry" />
        </mxCell>
        <mxCell id="jg6SUQsdEgEUDbtEuBOz-69" style="edgeStyle=none;curved=1;rounded=0;orthogonalLoop=1;jettySize=auto;html=1;entryX=0.5;entryY=0;entryDx=0;entryDy=0;entryPerimeter=0;fontSize=12;startSize=8;endSize=8;" edge="1" source="jg6SUQsdEgEUDbtEuBOz-65" target="jg6SUQsdEgEUDbtEuBOz-51" parent="1">
          <mxGeometry relative="1" as="geometry" />
        </mxCell>
        <mxCell id="jg6SUQsdEgEUDbtEuBOz-70" value="01 if-else문" style="shape=umlFrame;whiteSpace=wrap;html=1;pointerEvents=0;width=100;height=40;" vertex="1" parent="1">
          <mxGeometry x="-104" y="-520" width="420" height="950" as="geometry" />
        </mxCell>
        <mxCell id="jg6SUQsdEgEUDbtEuBOz-71" value="&lt;div&gt;&lt;span style=&quot;background-color: transparent; color: light-dark(rgb(0, 0, 0), rgb(255, 255, 255));&quot;&gt;학교에 다니지&lt;/span&gt;&lt;/div&gt;&lt;div&gt;&lt;span style=&quot;background-color: transparent; color: light-dark(rgb(0, 0, 0), rgb(255, 255, 255));&quot;&gt;않습니다.&lt;/span&gt;&lt;/div&gt;" style="strokeWidth=2;html=1;shape=mxgraph.flowchart.document2;whiteSpace=wrap;size=0.25;" vertex="1" parent="1">
          <mxGeometry x="-90" y="-69" width="100" height="60" as="geometry" />
        </mxCell>
        <mxCell id="jg6SUQsdEgEUDbtEuBOz-74" style="edgeStyle=none;curved=1;rounded=0;orthogonalLoop=1;jettySize=auto;html=1;entryX=1;entryY=0.5;entryDx=0;entryDy=0;entryPerimeter=0;fontSize=12;startSize=8;endSize=8;" edge="1" parent="1" source="jg6SUQsdEgEUDbtEuBOz-52" target="jg6SUQsdEgEUDbtEuBOz-71">
          <mxGeometry relative="1" as="geometry">
            <mxPoint x="-20" y="-148.00000000000023" as="targetPoint" />
          </mxGeometry>
        </mxCell>
        <mxCell id="jg6SUQsdEgEUDbtEuBOz-75" style="edgeStyle=none;curved=0;rounded=0;orthogonalLoop=1;jettySize=auto;html=1;entryX=0.094;entryY=0.608;entryDx=0;entryDy=0;entryPerimeter=0;fontSize=12;startSize=8;endSize=8;" edge="1" parent="1" source="jg6SUQsdEgEUDbtEuBOz-71" target="jg6SUQsdEgEUDbtEuBOz-65">
          <mxGeometry relative="1" as="geometry">
            <Array as="points">
              <mxPoint x="-40" y="161" />
            </Array>
          </mxGeometry>
        </mxCell>
        <mxCell id="jg6SUQsdEgEUDbtEuBOz-81" style="edgeStyle=none;curved=1;rounded=0;orthogonalLoop=1;jettySize=auto;html=1;entryX=0.5;entryY=0;entryDx=0;entryDy=0;fontSize=12;startSize=8;endSize=8;" edge="1" source="jg6SUQsdEgEUDbtEuBOz-86" target="jg6SUQsdEgEUDbtEuBOz-92" parent="1">
          <mxGeometry relative="1" as="geometry" />
        </mxCell>
        <mxCell id="jg6SUQsdEgEUDbtEuBOz-84" style="edgeStyle=none;curved=1;rounded=0;orthogonalLoop=1;jettySize=auto;html=1;entryX=0.5;entryY=0;entryDx=0;entryDy=0;entryPerimeter=0;fontSize=12;startSize=8;endSize=8;" edge="1" source="jg6SUQsdEgEUDbtEuBOz-92" target="jg6SUQsdEgEUDbtEuBOz-88" parent="1">
          <mxGeometry relative="1" as="geometry" />
        </mxCell>
        <mxCell id="jg6SUQsdEgEUDbtEuBOz-86" value="시작" style="strokeWidth=2;html=1;shape=mxgraph.flowchart.terminator;whiteSpace=wrap;" vertex="1" parent="1">
          <mxGeometry x="520" y="-460" width="100" height="60" as="geometry" />
        </mxCell>
        <mxCell id="jg6SUQsdEgEUDbtEuBOz-87" value="끝" style="strokeWidth=2;html=1;shape=mxgraph.flowchart.terminator;whiteSpace=wrap;" vertex="1" parent="1">
          <mxGeometry x="520" y="320" width="100" height="60" as="geometry" />
        </mxCell>
        <mxCell id="jg6SUQsdEgEUDbtEuBOz-109" style="edgeStyle=none;curved=1;rounded=0;orthogonalLoop=1;jettySize=auto;html=1;fontSize=12;startSize=8;endSize=8;" edge="1" parent="1" source="jg6SUQsdEgEUDbtEuBOz-88" target="jg6SUQsdEgEUDbtEuBOz-101">
          <mxGeometry relative="1" as="geometry" />
        </mxCell>
        <mxCell id="jg6SUQsdEgEUDbtEuBOz-88" value="정수가&lt;div&gt;3의 배수인가&lt;/div&gt;" style="strokeWidth=2;html=1;shape=mxgraph.flowchart.decision;whiteSpace=wrap;" vertex="1" parent="1">
          <mxGeometry x="520" y="-220" width="100" height="100" as="geometry" />
        </mxCell>
        <mxCell id="jg6SUQsdEgEUDbtEuBOz-89" value="&lt;div&gt;&lt;span style=&quot;background-color: transparent; color: light-dark(rgb(0, 0, 0), rgb(255, 255, 255));&quot;&gt;3의 배수입니다.&lt;/span&gt;&lt;/div&gt;" style="strokeWidth=2;html=1;shape=mxgraph.flowchart.document2;whiteSpace=wrap;size=0.25;" vertex="1" parent="1">
          <mxGeometry x="670" y="-200" width="100" height="60" as="geometry" />
        </mxCell>
        <mxCell id="jg6SUQsdEgEUDbtEuBOz-90" value="yes" style="text;html=1;align=center;verticalAlign=middle;resizable=0;points=[];autosize=1;strokeColor=none;fillColor=none;fontSize=16;" vertex="1" parent="1">
          <mxGeometry x="620" y="-205" width="50" height="30" as="geometry" />
        </mxCell>
        <mxCell id="jg6SUQsdEgEUDbtEuBOz-91" value="no" style="text;html=1;align=center;verticalAlign=middle;resizable=0;points=[];autosize=1;strokeColor=none;fillColor=none;fontSize=16;" vertex="1" parent="1">
          <mxGeometry x="569" y="-120" width="40" height="30" as="geometry" />
        </mxCell>
        <mxCell id="jg6SUQsdEgEUDbtEuBOz-92" value="정수 입력" style="shape=parallelogram;perimeter=parallelogramPerimeter;whiteSpace=wrap;html=1;fixedSize=1;" vertex="1" parent="1">
          <mxGeometry x="510" y="-330" width="120" height="60" as="geometry" />
        </mxCell>
        <mxCell id="jg6SUQsdEgEUDbtEuBOz-115" style="edgeStyle=none;curved=1;rounded=0;orthogonalLoop=1;jettySize=auto;html=1;fontSize=12;startSize=8;endSize=8;endArrow=none;startFill=0;" edge="1" parent="1" source="jg6SUQsdEgEUDbtEuBOz-99">
          <mxGeometry relative="1" as="geometry">
            <mxPoint x="570" y="-40" as="targetPoint" />
          </mxGeometry>
        </mxCell>
        <mxCell id="jg6SUQsdEgEUDbtEuBOz-99" value="정수가 5의&lt;div&gt;배수인가&lt;/div&gt;" style="strokeWidth=2;html=1;shape=mxgraph.flowchart.decision;whiteSpace=wrap;" vertex="1" parent="1">
          <mxGeometry x="670" y="-90" width="100" height="100" as="geometry" />
        </mxCell>
        <mxCell id="jg6SUQsdEgEUDbtEuBOz-101" value="프로그램 종료" style="shape=parallelogram;perimeter=parallelogramPerimeter;whiteSpace=wrap;html=1;fixedSize=1;" vertex="1" parent="1">
          <mxGeometry x="510" y="190" width="120" height="60" as="geometry" />
        </mxCell>
        <mxCell id="jg6SUQsdEgEUDbtEuBOz-105" style="edgeStyle=none;curved=1;rounded=0;orthogonalLoop=1;jettySize=auto;html=1;entryX=0.5;entryY=0;entryDx=0;entryDy=0;entryPerimeter=0;fontSize=12;startSize=8;endSize=8;" edge="1" source="jg6SUQsdEgEUDbtEuBOz-101" target="jg6SUQsdEgEUDbtEuBOz-87" parent="1">
          <mxGeometry relative="1" as="geometry" />
        </mxCell>
        <mxCell id="jg6SUQsdEgEUDbtEuBOz-106" value="01 문제" style="shape=umlFrame;whiteSpace=wrap;html=1;pointerEvents=0;width=100;height=40;" vertex="1" parent="1">
          <mxGeometry x="390" y="-520" width="420" height="950" as="geometry" />
        </mxCell>
        <mxCell id="jg6SUQsdEgEUDbtEuBOz-114" style="edgeStyle=none;curved=0;rounded=0;orthogonalLoop=1;jettySize=auto;html=1;entryX=1;entryY=0.5;entryDx=0;entryDy=0;fontSize=12;startSize=8;endSize=8;" edge="1" parent="1" source="jg6SUQsdEgEUDbtEuBOz-107" target="jg6SUQsdEgEUDbtEuBOz-101">
          <mxGeometry relative="1" as="geometry">
            <Array as="points">
              <mxPoint x="720" y="220" />
            </Array>
          </mxGeometry>
        </mxCell>
        <mxCell id="jg6SUQsdEgEUDbtEuBOz-107" value="&lt;div&gt;&lt;span style=&quot;background-color: transparent; color: light-dark(rgb(0, 0, 0), rgb(255, 255, 255));&quot;&gt;5의 배수입니다.&lt;/span&gt;&lt;/div&gt;" style="strokeWidth=2;html=1;shape=mxgraph.flowchart.document2;whiteSpace=wrap;size=0.25;" vertex="1" parent="1">
          <mxGeometry x="669" y="60" width="105" height="60" as="geometry" />
        </mxCell>
        <mxCell id="jg6SUQsdEgEUDbtEuBOz-110" style="edgeStyle=none;curved=1;rounded=0;orthogonalLoop=1;jettySize=auto;html=1;entryX=1.013;entryY=1.17;entryDx=0;entryDy=0;entryPerimeter=0;fontSize=12;startSize=8;endSize=8;" edge="1" parent="1" source="jg6SUQsdEgEUDbtEuBOz-88" target="jg6SUQsdEgEUDbtEuBOz-90">
          <mxGeometry relative="1" as="geometry" />
        </mxCell>
        <mxCell id="jg6SUQsdEgEUDbtEuBOz-111" style="edgeStyle=none;curved=1;rounded=0;orthogonalLoop=1;jettySize=auto;html=1;entryX=0.5;entryY=0;entryDx=0;entryDy=0;entryPerimeter=0;fontSize=12;startSize=8;endSize=8;" edge="1" parent="1" source="jg6SUQsdEgEUDbtEuBOz-89" target="jg6SUQsdEgEUDbtEuBOz-99">
          <mxGeometry relative="1" as="geometry" />
        </mxCell>
        <mxCell id="jg6SUQsdEgEUDbtEuBOz-113" style="edgeStyle=none;curved=1;rounded=0;orthogonalLoop=1;jettySize=auto;html=1;entryX=0.5;entryY=0;entryDx=0;entryDy=0;entryPerimeter=0;fontSize=12;startSize=8;endSize=8;" edge="1" parent="1" source="jg6SUQsdEgEUDbtEuBOz-99" target="jg6SUQsdEgEUDbtEuBOz-107">
          <mxGeometry relative="1" as="geometry" />
        </mxCell>
        <mxCell id="jg6SUQsdEgEUDbtEuBOz-116" value="no" style="text;html=1;align=center;verticalAlign=middle;resizable=0;points=[];autosize=1;strokeColor=none;fillColor=none;fontSize=16;" vertex="1" parent="1">
          <mxGeometry x="634" y="-70" width="40" height="30" as="geometry" />
        </mxCell>
        <mxCell id="jg6SUQsdEgEUDbtEuBOz-117" value="yes" style="text;html=1;align=center;verticalAlign=middle;resizable=0;points=[];autosize=1;strokeColor=none;fillColor=none;fontSize=16;" vertex="1" parent="1">
          <mxGeometry x="720" y="-140" width="50" height="30" as="geometry" />
        </mxCell>
        <mxCell id="jg6SUQsdEgEUDbtEuBOz-140" style="edgeStyle=none;curved=1;rounded=0;orthogonalLoop=1;jettySize=auto;html=1;entryX=0.5;entryY=0;entryDx=0;entryDy=0;fontSize=12;startSize=8;endSize=8;" edge="1" parent="1" source="jg6SUQsdEgEUDbtEuBOz-120" target="jg6SUQsdEgEUDbtEuBOz-127">
          <mxGeometry relative="1" as="geometry" />
        </mxCell>
        <mxCell id="jg6SUQsdEgEUDbtEuBOz-120" value="시작" style="strokeWidth=2;html=1;shape=mxgraph.flowchart.terminator;whiteSpace=wrap;" vertex="1" parent="1">
          <mxGeometry x="1030" y="-460" width="100" height="60" as="geometry" />
        </mxCell>
        <mxCell id="jg6SUQsdEgEUDbtEuBOz-121" value="끝" style="strokeWidth=2;html=1;shape=mxgraph.flowchart.terminator;whiteSpace=wrap;" vertex="1" parent="1">
          <mxGeometry x="1030" y="320" width="100" height="60" as="geometry" />
        </mxCell>
        <mxCell id="jg6SUQsdEgEUDbtEuBOz-142" style="edgeStyle=none;curved=1;rounded=0;orthogonalLoop=1;jettySize=auto;html=1;fontSize=12;startSize=8;endSize=8;" edge="1" parent="1" source="jg6SUQsdEgEUDbtEuBOz-123" target="jg6SUQsdEgEUDbtEuBOz-129">
          <mxGeometry relative="1" as="geometry" />
        </mxCell>
        <mxCell id="jg6SUQsdEgEUDbtEuBOz-123" value="정수가&lt;div&gt;3과 5의&lt;/div&gt;&lt;div&gt;배수인가&lt;/div&gt;" style="strokeWidth=2;html=1;shape=mxgraph.flowchart.decision;whiteSpace=wrap;" vertex="1" parent="1">
          <mxGeometry x="1030" y="-168" width="100" height="100" as="geometry" />
        </mxCell>
        <mxCell id="jg6SUQsdEgEUDbtEuBOz-149" style="edgeStyle=none;curved=0;rounded=0;orthogonalLoop=1;jettySize=auto;html=1;entryX=1;entryY=0.5;entryDx=0;entryDy=0;fontSize=12;startSize=8;endSize=8;" edge="1" parent="1" source="jg6SUQsdEgEUDbtEuBOz-124" target="jg6SUQsdEgEUDbtEuBOz-130">
          <mxGeometry relative="1" as="geometry">
            <Array as="points">
              <mxPoint x="1220" y="194" />
            </Array>
          </mxGeometry>
        </mxCell>
        <mxCell id="jg6SUQsdEgEUDbtEuBOz-124" value="&lt;div&gt;&lt;span style=&quot;background-color: transparent; color: light-dark(rgb(0, 0, 0), rgb(255, 255, 255));&quot;&gt;3과 5의&lt;/span&gt;&lt;/div&gt;&lt;div&gt;&lt;span style=&quot;background-color: transparent; color: light-dark(rgb(0, 0, 0), rgb(255, 255, 255));&quot;&gt;배수입니다.&lt;/span&gt;&lt;/div&gt;" style="strokeWidth=2;html=1;shape=mxgraph.flowchart.document2;whiteSpace=wrap;size=0.25;" vertex="1" parent="1">
          <mxGeometry x="1174" y="-148" width="100" height="60" as="geometry" />
        </mxCell>
        <mxCell id="jg6SUQsdEgEUDbtEuBOz-125" value="yes" style="text;html=1;align=center;verticalAlign=middle;resizable=0;points=[];autosize=1;strokeColor=none;fillColor=none;fontSize=16;" vertex="1" parent="1">
          <mxGeometry x="1124" y="-150" width="50" height="30" as="geometry" />
        </mxCell>
        <mxCell id="jg6SUQsdEgEUDbtEuBOz-126" value="no" style="text;html=1;align=center;verticalAlign=middle;resizable=0;points=[];autosize=1;strokeColor=none;fillColor=none;fontSize=16;" vertex="1" parent="1">
          <mxGeometry x="1040" y="-60" width="40" height="30" as="geometry" />
        </mxCell>
        <mxCell id="jg6SUQsdEgEUDbtEuBOz-127" value="정수 입력" style="shape=parallelogram;perimeter=parallelogramPerimeter;whiteSpace=wrap;html=1;fixedSize=1;" vertex="1" parent="1">
          <mxGeometry x="1020" y="-304" width="120" height="60" as="geometry" />
        </mxCell>
        <mxCell id="jg6SUQsdEgEUDbtEuBOz-143" style="edgeStyle=none;curved=1;rounded=0;orthogonalLoop=1;jettySize=auto;html=1;entryX=0.5;entryY=0;entryDx=0;entryDy=0;fontSize=12;startSize=8;endSize=8;" edge="1" parent="1" source="jg6SUQsdEgEUDbtEuBOz-129" target="jg6SUQsdEgEUDbtEuBOz-130">
          <mxGeometry relative="1" as="geometry" />
        </mxCell>
        <mxCell id="jg6SUQsdEgEUDbtEuBOz-129" value="정수가 3의&lt;div&gt;배수인가&lt;/div&gt;" style="strokeWidth=2;html=1;shape=mxgraph.flowchart.decision;whiteSpace=wrap;" vertex="1" parent="1">
          <mxGeometry x="1030" y="-12" width="100" height="100" as="geometry" />
        </mxCell>
        <mxCell id="jg6SUQsdEgEUDbtEuBOz-144" style="edgeStyle=none;curved=1;rounded=0;orthogonalLoop=1;jettySize=auto;html=1;fontSize=12;startSize=8;endSize=8;" edge="1" parent="1" source="jg6SUQsdEgEUDbtEuBOz-130" target="jg6SUQsdEgEUDbtEuBOz-121">
          <mxGeometry relative="1" as="geometry" />
        </mxCell>
        <mxCell id="jg6SUQsdEgEUDbtEuBOz-130" value="프로그램 종료" style="shape=parallelogram;perimeter=parallelogramPerimeter;whiteSpace=wrap;html=1;fixedSize=1;" vertex="1" parent="1">
          <mxGeometry x="1020" y="164" width="120" height="60" as="geometry" />
        </mxCell>
        <mxCell id="jg6SUQsdEgEUDbtEuBOz-132" value="01 문제" style="shape=umlFrame;whiteSpace=wrap;html=1;pointerEvents=0;width=100;height=40;" vertex="1" parent="1">
          <mxGeometry x="870" y="-520" width="420" height="950" as="geometry" />
        </mxCell>
        <mxCell id="jg6SUQsdEgEUDbtEuBOz-148" style="edgeStyle=none;curved=0;rounded=0;orthogonalLoop=1;jettySize=auto;html=1;entryX=0;entryY=0.5;entryDx=0;entryDy=0;fontSize=12;startSize=8;endSize=8;" edge="1" parent="1" source="jg6SUQsdEgEUDbtEuBOz-134" target="jg6SUQsdEgEUDbtEuBOz-130">
          <mxGeometry relative="1" as="geometry">
            <Array as="points">
              <mxPoint x="940" y="194" />
            </Array>
          </mxGeometry>
        </mxCell>
        <mxCell id="jg6SUQsdEgEUDbtEuBOz-134" value="&lt;div&gt;&lt;span style=&quot;background-color: transparent; color: light-dark(rgb(0, 0, 0), rgb(255, 255, 255));&quot;&gt;3의 배수입니다.&lt;/span&gt;&lt;/div&gt;" style="strokeWidth=2;html=1;shape=mxgraph.flowchart.document2;whiteSpace=wrap;size=0.25;" vertex="1" parent="1">
          <mxGeometry x="887" y="8" width="105" height="60" as="geometry" />
        </mxCell>
        <mxCell id="jg6SUQsdEgEUDbtEuBOz-138" value="no" style="text;html=1;align=center;verticalAlign=middle;resizable=0;points=[];autosize=1;strokeColor=none;fillColor=none;fontSize=16;" vertex="1" parent="1">
          <mxGeometry x="1040" y="104" width="40" height="30" as="geometry" />
        </mxCell>
        <mxCell id="jg6SUQsdEgEUDbtEuBOz-139" value="yes" style="text;html=1;align=center;verticalAlign=middle;resizable=0;points=[];autosize=1;strokeColor=none;fillColor=none;fontSize=16;" vertex="1" parent="1">
          <mxGeometry x="992" y="10" width="50" height="30" as="geometry" />
        </mxCell>
        <mxCell id="jg6SUQsdEgEUDbtEuBOz-141" style="edgeStyle=none;curved=1;rounded=0;orthogonalLoop=1;jettySize=auto;html=1;entryX=0.5;entryY=0;entryDx=0;entryDy=0;entryPerimeter=0;fontSize=12;startSize=8;endSize=8;" edge="1" parent="1" source="jg6SUQsdEgEUDbtEuBOz-127" target="jg6SUQsdEgEUDbtEuBOz-123">
          <mxGeometry relative="1" as="geometry" />
        </mxCell>
        <mxCell id="jg6SUQsdEgEUDbtEuBOz-146" style="edgeStyle=none;curved=1;rounded=0;orthogonalLoop=1;jettySize=auto;html=1;entryX=0;entryY=0.5;entryDx=0;entryDy=0;entryPerimeter=0;fontSize=12;startSize=8;endSize=8;" edge="1" parent="1" source="jg6SUQsdEgEUDbtEuBOz-123" target="jg6SUQsdEgEUDbtEuBOz-124">
          <mxGeometry relative="1" as="geometry" />
        </mxCell>
        <mxCell id="jg6SUQsdEgEUDbtEuBOz-147" style="edgeStyle=none;curved=1;rounded=0;orthogonalLoop=1;jettySize=auto;html=1;entryX=1;entryY=0.5;entryDx=0;entryDy=0;entryPerimeter=0;fontSize=12;startSize=8;endSize=8;" edge="1" parent="1" source="jg6SUQsdEgEUDbtEuBOz-129" target="jg6SUQsdEgEUDbtEuBOz-134">
          <mxGeometry relative="1" as="geometry" />
        </mxCell>
        <mxCell id="jg6SUQsdEgEUDbtEuBOz-174" style="edgeStyle=none;curved=1;rounded=0;orthogonalLoop=1;jettySize=auto;html=1;entryX=0.5;entryY=0;entryDx=0;entryDy=0;fontSize=12;startSize=8;endSize=8;" edge="1" parent="1" source="jg6SUQsdEgEUDbtEuBOz-152" target="jg6SUQsdEgEUDbtEuBOz-159">
          <mxGeometry relative="1" as="geometry" />
        </mxCell>
        <mxCell id="jg6SUQsdEgEUDbtEuBOz-152" value="시작" style="strokeWidth=2;html=1;shape=mxgraph.flowchart.terminator;whiteSpace=wrap;" vertex="1" parent="1">
          <mxGeometry x="-440" y="580" width="100" height="60" as="geometry" />
        </mxCell>
        <mxCell id="jg6SUQsdEgEUDbtEuBOz-153" value="끝" style="strokeWidth=2;html=1;shape=mxgraph.flowchart.terminator;whiteSpace=wrap;" vertex="1" parent="1">
          <mxGeometry x="-440" y="1360" width="100" height="60" as="geometry" />
        </mxCell>
        <mxCell id="jg6SUQsdEgEUDbtEuBOz-177" style="edgeStyle=none;curved=1;rounded=0;orthogonalLoop=1;jettySize=auto;html=1;fontSize=12;startSize=8;endSize=8;" edge="1" parent="1" source="jg6SUQsdEgEUDbtEuBOz-155" target="jg6SUQsdEgEUDbtEuBOz-156">
          <mxGeometry relative="1" as="geometry" />
        </mxCell>
        <mxCell id="jg6SUQsdEgEUDbtEuBOz-155" value="num1 &amp;gt; num2" style="strokeWidth=2;html=1;shape=mxgraph.flowchart.decision;whiteSpace=wrap;" vertex="1" parent="1">
          <mxGeometry x="-440" y="950" width="100" height="100" as="geometry" />
        </mxCell>
        <mxCell id="jg6SUQsdEgEUDbtEuBOz-179" style="edgeStyle=none;curved=0;rounded=0;orthogonalLoop=1;jettySize=auto;html=1;entryX=1;entryY=0.5;entryDx=0;entryDy=0;fontSize=12;startSize=8;endSize=8;" edge="1" parent="1" source="jg6SUQsdEgEUDbtEuBOz-156" target="jg6SUQsdEgEUDbtEuBOz-162">
          <mxGeometry relative="1" as="geometry">
            <Array as="points">
              <mxPoint x="-253" y="1195" />
            </Array>
          </mxGeometry>
        </mxCell>
        <mxCell id="jg6SUQsdEgEUDbtEuBOz-156" value="&lt;div&gt;&lt;span style=&quot;background-color: transparent; color: light-dark(rgb(0, 0, 0), rgb(255, 255, 255));&quot;&gt;num2가&lt;/span&gt;&lt;/div&gt;&lt;div&gt;&lt;span style=&quot;background-color: transparent; color: light-dark(rgb(0, 0, 0), rgb(255, 255, 255));&quot;&gt;더 큰 수 입니다.&lt;/span&gt;&lt;/div&gt;" style="strokeWidth=2;html=1;shape=mxgraph.flowchart.document2;whiteSpace=wrap;size=0.25;" vertex="1" parent="1">
          <mxGeometry x="-303.5" y="970" width="100" height="60" as="geometry" />
        </mxCell>
        <mxCell id="jg6SUQsdEgEUDbtEuBOz-157" value="yes" style="text;html=1;align=center;verticalAlign=middle;resizable=0;points=[];autosize=1;strokeColor=none;fillColor=none;fontSize=16;" vertex="1" parent="1">
          <mxGeometry x="-353.5" y="972" width="50" height="30" as="geometry" />
        </mxCell>
        <mxCell id="jg6SUQsdEgEUDbtEuBOz-175" style="edgeStyle=none;curved=1;rounded=0;orthogonalLoop=1;jettySize=auto;html=1;fontSize=12;startSize=8;endSize=8;" edge="1" parent="1" source="jg6SUQsdEgEUDbtEuBOz-159" target="jg6SUQsdEgEUDbtEuBOz-155">
          <mxGeometry relative="1" as="geometry" />
        </mxCell>
        <mxCell id="jg6SUQsdEgEUDbtEuBOz-159" value="정수&amp;nbsp;&lt;div&gt;num1, num2 입력&lt;/div&gt;" style="shape=parallelogram;perimeter=parallelogramPerimeter;whiteSpace=wrap;html=1;fixedSize=1;" vertex="1" parent="1">
          <mxGeometry x="-450" y="775" width="120" height="60" as="geometry" />
        </mxCell>
        <mxCell id="jg6SUQsdEgEUDbtEuBOz-162" value="프로그램 종료" style="shape=parallelogram;perimeter=parallelogramPerimeter;whiteSpace=wrap;html=1;fixedSize=1;" vertex="1" parent="1">
          <mxGeometry x="-450" y="1165" width="120" height="60" as="geometry" />
        </mxCell>
        <mxCell id="jg6SUQsdEgEUDbtEuBOz-163" style="edgeStyle=none;curved=1;rounded=0;orthogonalLoop=1;jettySize=auto;html=1;entryX=0.5;entryY=0;entryDx=0;entryDy=0;entryPerimeter=0;fontSize=12;startSize=8;endSize=8;" edge="1" source="jg6SUQsdEgEUDbtEuBOz-162" target="jg6SUQsdEgEUDbtEuBOz-153" parent="1">
          <mxGeometry relative="1" as="geometry" />
        </mxCell>
        <mxCell id="jg6SUQsdEgEUDbtEuBOz-164" value="02 문제1" style="shape=umlFrame;whiteSpace=wrap;html=1;pointerEvents=0;width=100;height=40;" vertex="1" parent="1">
          <mxGeometry x="-600" y="520" width="420" height="950" as="geometry" />
        </mxCell>
        <mxCell id="jg6SUQsdEgEUDbtEuBOz-171" value="no" style="text;html=1;align=center;verticalAlign=middle;resizable=0;points=[];autosize=1;strokeColor=none;fillColor=none;fontSize=16;" vertex="1" parent="1">
          <mxGeometry x="-470" y="970" width="40" height="30" as="geometry" />
        </mxCell>
        <mxCell id="jg6SUQsdEgEUDbtEuBOz-178" style="edgeStyle=none;curved=0;rounded=0;orthogonalLoop=1;jettySize=auto;html=1;entryX=0;entryY=0.5;entryDx=0;entryDy=0;fontSize=12;startSize=8;endSize=8;" edge="1" parent="1" source="jg6SUQsdEgEUDbtEuBOz-172" target="jg6SUQsdEgEUDbtEuBOz-162">
          <mxGeometry relative="1" as="geometry">
            <Array as="points">
              <mxPoint x="-526" y="1195" />
            </Array>
          </mxGeometry>
        </mxCell>
        <mxCell id="jg6SUQsdEgEUDbtEuBOz-172" value="&lt;div&gt;&lt;span style=&quot;background-color: transparent; color: light-dark(rgb(0, 0, 0), rgb(255, 255, 255));&quot;&gt;num2가&lt;/span&gt;&lt;/div&gt;&lt;div&gt;&lt;span style=&quot;background-color: transparent; color: light-dark(rgb(0, 0, 0), rgb(255, 255, 255));&quot;&gt;더 큰 수 입니다.&lt;/span&gt;&lt;/div&gt;" style="strokeWidth=2;html=1;shape=mxgraph.flowchart.document2;whiteSpace=wrap;size=0.25;" vertex="1" parent="1">
          <mxGeometry x="-576.5" y="970" width="100" height="60" as="geometry" />
        </mxCell>
        <mxCell id="jg6SUQsdEgEUDbtEuBOz-176" style="edgeStyle=none;curved=1;rounded=0;orthogonalLoop=1;jettySize=auto;html=1;entryX=1;entryY=0.5;entryDx=0;entryDy=0;entryPerimeter=0;fontSize=12;startSize=8;endSize=8;" edge="1" parent="1" source="jg6SUQsdEgEUDbtEuBOz-155" target="jg6SUQsdEgEUDbtEuBOz-172">
          <mxGeometry relative="1" as="geometry" />
        </mxCell>
        <mxCell id="jg6SUQsdEgEUDbtEuBOz-204" style="edgeStyle=none;curved=1;rounded=0;orthogonalLoop=1;jettySize=auto;html=1;fontSize=12;startSize=8;endSize=8;" edge="1" parent="1" source="jg6SUQsdEgEUDbtEuBOz-181" target="jg6SUQsdEgEUDbtEuBOz-189">
          <mxGeometry relative="1" as="geometry" />
        </mxCell>
        <mxCell id="jg6SUQsdEgEUDbtEuBOz-181" value="시작" style="strokeWidth=2;html=1;shape=mxgraph.flowchart.terminator;whiteSpace=wrap;" vertex="1" parent="1">
          <mxGeometry x="143" y="580" width="100" height="60" as="geometry" />
        </mxCell>
        <mxCell id="jg6SUQsdEgEUDbtEuBOz-182" value="끝" style="strokeWidth=2;html=1;shape=mxgraph.flowchart.terminator;whiteSpace=wrap;" vertex="1" parent="1">
          <mxGeometry x="143" y="1360" width="100" height="60" as="geometry" />
        </mxCell>
        <mxCell id="jg6SUQsdEgEUDbtEuBOz-207" style="edgeStyle=none;curved=1;rounded=0;orthogonalLoop=1;jettySize=auto;html=1;fontSize=12;startSize=8;endSize=8;" edge="1" parent="1" source="jg6SUQsdEgEUDbtEuBOz-184" target="jg6SUQsdEgEUDbtEuBOz-201">
          <mxGeometry relative="1" as="geometry" />
        </mxCell>
        <mxCell id="jg6SUQsdEgEUDbtEuBOz-184" value="&lt;span style=&quot;padding: 0px 0px 0px 2px;&quot;&gt;&lt;span style=&quot;font-family: Consolas; font-size: 10pt; white-space: pre;&quot;&gt;&lt;font style=&quot;color: rgb(0, 0, 0);&quot;&gt;num1-num3&amp;lt;0&lt;/font&gt;&lt;/span&gt;&lt;/span&gt;&lt;div&gt;&lt;span style=&quot;padding: 0px 0px 0px 2px;&quot;&gt;&lt;span style=&quot;font-family: Consolas; font-size: 10pt; white-space: pre;&quot;&gt;&lt;font style=&quot;color: rgb(0, 0, 0);&quot;&gt;&amp;amp;&amp;amp;&lt;/font&gt;&lt;/span&gt;&lt;/span&gt;&lt;/div&gt;&lt;div&gt;&lt;span style=&quot;padding: 0px 0px 0px 2px;&quot;&gt;&lt;span style=&quot;font-family: Consolas; font-size: 10pt; white-space: pre;&quot;&gt;&lt;font style=&quot;color: rgb(0, 0, 0);&quot;&gt;num2-num3&amp;lt;0&lt;/font&gt;&lt;/span&gt;&lt;/span&gt;&lt;/div&gt;" style="strokeWidth=2;html=1;shape=mxgraph.flowchart.decision;whiteSpace=wrap;" vertex="1" parent="1">
          <mxGeometry x="118.5" y="872" width="149" height="100" as="geometry" />
        </mxCell>
        <mxCell id="jg6SUQsdEgEUDbtEuBOz-215" style="edgeStyle=none;curved=0;rounded=0;orthogonalLoop=1;jettySize=auto;html=1;fontSize=12;startSize=8;endSize=8;endArrow=none;startFill=0;" edge="1" parent="1" source="jg6SUQsdEgEUDbtEuBOz-186">
          <mxGeometry relative="1" as="geometry">
            <mxPoint x="491.0000000000002" y="1080" as="targetPoint" />
            <Array as="points">
              <mxPoint x="491" y="922" />
            </Array>
          </mxGeometry>
        </mxCell>
        <mxCell id="jg6SUQsdEgEUDbtEuBOz-186" value="&lt;span style=&quot;padding: 0px 0px 0px 2px;&quot;&gt;&lt;span style=&quot;font-family: Consolas; font-size: 10pt; white-space: pre;&quot;&gt;&lt;font style=&quot;color: rgb(0, 0, 0);&quot;&gt;num3이&lt;/font&gt;&lt;/span&gt;&lt;/span&gt;&lt;div&gt;&lt;span style=&quot;padding: 0px 0px 0px 2px;&quot;&gt;&lt;span style=&quot;font-family: Consolas; font-size: 10pt; white-space: pre;&quot;&gt;&lt;font style=&quot;color: rgb(0, 0, 0);&quot;&gt;가장 큰 수입니다&lt;/font&gt;&lt;/span&gt;&lt;/span&gt;&lt;/div&gt;" style="strokeWidth=2;html=1;shape=mxgraph.flowchart.document2;whiteSpace=wrap;size=0.25;" vertex="1" parent="1">
          <mxGeometry x="331" y="892" width="120" height="60" as="geometry" />
        </mxCell>
        <mxCell id="jg6SUQsdEgEUDbtEuBOz-187" value="yes" style="text;html=1;align=center;verticalAlign=middle;resizable=0;points=[];autosize=1;strokeColor=none;fillColor=none;fontSize=16;" vertex="1" parent="1">
          <mxGeometry x="268" y="890" width="50" height="30" as="geometry" />
        </mxCell>
        <mxCell id="jg6SUQsdEgEUDbtEuBOz-189" value="정수&amp;nbsp;&lt;div&gt;num1, num2, num3&lt;/div&gt;&lt;div&gt;입력&lt;/div&gt;" style="shape=parallelogram;perimeter=parallelogramPerimeter;whiteSpace=wrap;html=1;fixedSize=1;" vertex="1" parent="1">
          <mxGeometry x="118" y="736" width="150" height="60" as="geometry" />
        </mxCell>
        <mxCell id="jg6SUQsdEgEUDbtEuBOz-209" style="edgeStyle=none;curved=1;rounded=0;orthogonalLoop=1;jettySize=auto;html=1;fontSize=12;startSize=8;endSize=8;" edge="1" parent="1" source="jg6SUQsdEgEUDbtEuBOz-190" target="jg6SUQsdEgEUDbtEuBOz-182">
          <mxGeometry relative="1" as="geometry" />
        </mxCell>
        <mxCell id="jg6SUQsdEgEUDbtEuBOz-190" value="프로그램 종료" style="shape=parallelogram;perimeter=parallelogramPerimeter;whiteSpace=wrap;html=1;fixedSize=1;" vertex="1" parent="1">
          <mxGeometry x="133" y="1204" width="120" height="60" as="geometry" />
        </mxCell>
        <mxCell id="jg6SUQsdEgEUDbtEuBOz-192" value="02 문제2_1" style="shape=umlFrame;whiteSpace=wrap;html=1;pointerEvents=0;width=100;height=40;" vertex="1" parent="1">
          <mxGeometry x="-101" y="520" width="640" height="950" as="geometry" />
        </mxCell>
        <mxCell id="jg6SUQsdEgEUDbtEuBOz-193" value="no" style="text;html=1;align=center;verticalAlign=middle;resizable=0;points=[];autosize=1;strokeColor=none;fillColor=none;fontSize=16;" vertex="1" parent="1">
          <mxGeometry x="143" y="972" width="40" height="30" as="geometry" />
        </mxCell>
        <mxCell id="jg6SUQsdEgEUDbtEuBOz-208" style="edgeStyle=none;curved=1;rounded=0;orthogonalLoop=1;jettySize=auto;html=1;fontSize=12;startSize=8;endSize=8;" edge="1" parent="1" source="jg6SUQsdEgEUDbtEuBOz-201" target="jg6SUQsdEgEUDbtEuBOz-190">
          <mxGeometry relative="1" as="geometry" />
        </mxCell>
        <mxCell id="jg6SUQsdEgEUDbtEuBOz-201" value="&lt;span style=&quot;padding: 0px 0px 0px 2px;&quot;&gt;&lt;span style=&quot;font-family: Consolas; font-size: 10pt; white-space: pre;&quot;&gt;&lt;font style=&quot;color: rgb(0, 0, 0);&quot;&gt;num1-num2&amp;lt;0&lt;/font&gt;&lt;/span&gt;&lt;/span&gt;&lt;div&gt;&lt;span style=&quot;padding: 0px 0px 0px 2px;&quot;&gt;&lt;span style=&quot;font-family: Consolas; font-size: 10pt; white-space: pre;&quot;&gt;&lt;font style=&quot;color: rgb(0, 0, 0);&quot;&gt;&amp;amp;&amp;amp;&lt;/font&gt;&lt;/span&gt;&lt;/span&gt;&lt;/div&gt;&lt;div&gt;&lt;span style=&quot;padding: 0px 0px 0px 2px;&quot;&gt;&lt;span style=&quot;font-family: Consolas; font-size: 10pt; white-space: pre;&quot;&gt;&lt;font style=&quot;color: rgb(0, 0, 0);&quot;&gt;num2-num3&amp;gt;0&lt;/font&gt;&lt;/span&gt;&lt;/span&gt;&lt;/div&gt;" style="strokeWidth=2;html=1;shape=mxgraph.flowchart.decision;whiteSpace=wrap;" vertex="1" parent="1">
          <mxGeometry x="118.5" y="1028" width="149" height="100" as="geometry" />
        </mxCell>
        <mxCell id="jg6SUQsdEgEUDbtEuBOz-202" value="&lt;span style=&quot;padding: 0px 0px 0px 2px;&quot;&gt;&lt;span style=&quot;font-family: Consolas; font-size: 10pt; white-space: pre;&quot;&gt;&lt;font style=&quot;color: rgb(0, 0, 0);&quot;&gt;num2가&lt;/font&gt;&lt;/span&gt;&lt;/span&gt;&lt;div&gt;&lt;span style=&quot;padding: 0px 0px 0px 2px;&quot;&gt;&lt;span style=&quot;font-family: Consolas; font-size: 10pt; white-space: pre;&quot;&gt;&lt;font style=&quot;color: rgb(0, 0, 0);&quot;&gt;가장 큰 수입니다&lt;/font&gt;&lt;/span&gt;&lt;/span&gt;&lt;/div&gt;" style="strokeWidth=2;html=1;shape=mxgraph.flowchart.document2;whiteSpace=wrap;size=0.25;" vertex="1" parent="1">
          <mxGeometry x="331" y="1048" width="120" height="60" as="geometry" />
        </mxCell>
        <mxCell id="jg6SUQsdEgEUDbtEuBOz-219" style="edgeStyle=none;curved=0;rounded=0;orthogonalLoop=1;jettySize=auto;html=1;entryX=0;entryY=0.5;entryDx=0;entryDy=0;fontSize=12;startSize=8;endSize=8;" edge="1" parent="1" source="jg6SUQsdEgEUDbtEuBOz-203" target="jg6SUQsdEgEUDbtEuBOz-190">
          <mxGeometry relative="1" as="geometry">
            <Array as="points">
              <mxPoint x="1" y="1234" />
            </Array>
          </mxGeometry>
        </mxCell>
        <mxCell id="jg6SUQsdEgEUDbtEuBOz-203" value="&lt;span style=&quot;padding: 0px 0px 0px 2px;&quot;&gt;&lt;span style=&quot;font-family: Consolas; font-size: 10pt; white-space: pre;&quot;&gt;&lt;font style=&quot;color: rgb(0, 0, 0);&quot;&gt;num1이&lt;/font&gt;&lt;/span&gt;&lt;/span&gt;&lt;div&gt;&lt;span style=&quot;padding: 0px 0px 0px 2px;&quot;&gt;&lt;span style=&quot;font-family: Consolas; font-size: 10pt; white-space: pre;&quot;&gt;&lt;font style=&quot;color: rgb(0, 0, 0);&quot;&gt;가장 큰 수입니다&lt;/font&gt;&lt;/span&gt;&lt;/span&gt;&lt;/div&gt;" style="strokeWidth=2;html=1;shape=mxgraph.flowchart.document2;whiteSpace=wrap;size=0.25;" vertex="1" parent="1">
          <mxGeometry x="-59" y="1048" width="120" height="60" as="geometry" />
        </mxCell>
        <mxCell id="jg6SUQsdEgEUDbtEuBOz-206" style="edgeStyle=none;curved=1;rounded=0;orthogonalLoop=1;jettySize=auto;html=1;entryX=0.5;entryY=0;entryDx=0;entryDy=0;entryPerimeter=0;fontSize=12;startSize=8;endSize=8;" edge="1" parent="1" source="jg6SUQsdEgEUDbtEuBOz-189" target="jg6SUQsdEgEUDbtEuBOz-184">
          <mxGeometry relative="1" as="geometry" />
        </mxCell>
        <mxCell id="jg6SUQsdEgEUDbtEuBOz-210" style="edgeStyle=none;curved=1;rounded=0;orthogonalLoop=1;jettySize=auto;html=1;entryX=0;entryY=0.5;entryDx=0;entryDy=0;entryPerimeter=0;fontSize=12;startSize=8;endSize=8;" edge="1" parent="1" source="jg6SUQsdEgEUDbtEuBOz-184" target="jg6SUQsdEgEUDbtEuBOz-186">
          <mxGeometry relative="1" as="geometry" />
        </mxCell>
        <mxCell id="jg6SUQsdEgEUDbtEuBOz-211" style="edgeStyle=none;curved=1;rounded=0;orthogonalLoop=1;jettySize=auto;html=1;entryX=0;entryY=0.5;entryDx=0;entryDy=0;entryPerimeter=0;fontSize=12;startSize=8;endSize=8;" edge="1" parent="1" source="jg6SUQsdEgEUDbtEuBOz-201" target="jg6SUQsdEgEUDbtEuBOz-202">
          <mxGeometry relative="1" as="geometry" />
        </mxCell>
        <mxCell id="jg6SUQsdEgEUDbtEuBOz-214" style="edgeStyle=none;curved=0;rounded=0;orthogonalLoop=1;jettySize=auto;html=1;entryX=0.93;entryY=0.579;entryDx=0;entryDy=0;entryPerimeter=0;fontSize=12;startSize=8;endSize=8;exitX=1;exitY=0.5;exitDx=0;exitDy=0;exitPerimeter=0;" edge="1" parent="1" source="jg6SUQsdEgEUDbtEuBOz-202" target="jg6SUQsdEgEUDbtEuBOz-190">
          <mxGeometry relative="1" as="geometry">
            <Array as="points">
              <mxPoint x="491" y="1078" />
              <mxPoint x="491" y="1240" />
            </Array>
          </mxGeometry>
        </mxCell>
        <mxCell id="jg6SUQsdEgEUDbtEuBOz-216" value="no" style="text;html=1;align=center;verticalAlign=middle;resizable=0;points=[];autosize=1;strokeColor=none;fillColor=none;fontSize=16;" vertex="1" parent="1">
          <mxGeometry x="78" y="1040" width="40" height="30" as="geometry" />
        </mxCell>
        <mxCell id="jg6SUQsdEgEUDbtEuBOz-217" value="yes" style="text;html=1;align=center;verticalAlign=middle;resizable=0;points=[];autosize=1;strokeColor=none;fillColor=none;fontSize=16;" vertex="1" parent="1">
          <mxGeometry x="268" y="1040" width="50" height="30" as="geometry" />
        </mxCell>
        <mxCell id="jg6SUQsdEgEUDbtEuBOz-218" style="edgeStyle=none;curved=1;rounded=0;orthogonalLoop=1;jettySize=auto;html=1;entryX=1;entryY=0.5;entryDx=0;entryDy=0;entryPerimeter=0;fontSize=12;startSize=8;endSize=8;" edge="1" parent="1" source="jg6SUQsdEgEUDbtEuBOz-201" target="jg6SUQsdEgEUDbtEuBOz-203">
          <mxGeometry relative="1" as="geometry" />
        </mxCell>
        <mxCell id="jg6SUQsdEgEUDbtEuBOz-220" style="edgeStyle=none;curved=1;rounded=0;orthogonalLoop=1;jettySize=auto;html=1;entryX=0.5;entryY=0;entryDx=0;entryDy=0;fontSize=12;startSize=8;endSize=8;" edge="1" source="jg6SUQsdEgEUDbtEuBOz-221" target="jg6SUQsdEgEUDbtEuBOz-229" parent="1">
          <mxGeometry relative="1" as="geometry" />
        </mxCell>
        <mxCell id="jg6SUQsdEgEUDbtEuBOz-221" value="시작" style="strokeWidth=2;html=1;shape=mxgraph.flowchart.terminator;whiteSpace=wrap;" vertex="1" parent="1">
          <mxGeometry x="730" y="580" width="100" height="60" as="geometry" />
        </mxCell>
        <mxCell id="jg6SUQsdEgEUDbtEuBOz-222" value="끝" style="strokeWidth=2;html=1;shape=mxgraph.flowchart.terminator;whiteSpace=wrap;" vertex="1" parent="1">
          <mxGeometry x="730" y="1360" width="100" height="60" as="geometry" />
        </mxCell>
        <mxCell id="jg6SUQsdEgEUDbtEuBOz-293" style="edgeStyle=none;curved=1;rounded=0;orthogonalLoop=1;jettySize=auto;html=1;entryX=0.5;entryY=0;entryDx=0;entryDy=0;fontSize=12;startSize=8;endSize=8;" edge="1" parent="1" source="jg6SUQsdEgEUDbtEuBOz-224" target="jg6SUQsdEgEUDbtEuBOz-274">
          <mxGeometry relative="1" as="geometry" />
        </mxCell>
        <mxCell id="jg6SUQsdEgEUDbtEuBOz-224" value="&lt;font face=&quot;Consolas&quot;&gt;&lt;span style=&quot;font-size: 13.3333px; white-space: pre;&quot;&gt;max&amp;lt;num2&lt;/span&gt;&lt;/font&gt;" style="strokeWidth=2;html=1;shape=mxgraph.flowchart.decision;whiteSpace=wrap;" vertex="1" parent="1">
          <mxGeometry x="720" y="820" width="120" height="100" as="geometry" />
        </mxCell>
        <mxCell id="jg6SUQsdEgEUDbtEuBOz-227" value="yes" style="text;html=1;align=center;verticalAlign=middle;resizable=0;points=[];autosize=1;strokeColor=none;fillColor=none;fontSize=16;rotation=0;" vertex="1" parent="1">
          <mxGeometry x="790" y="902" width="50" height="30" as="geometry" />
        </mxCell>
        <mxCell id="jg6SUQsdEgEUDbtEuBOz-280" style="edgeStyle=none;curved=1;rounded=0;orthogonalLoop=1;jettySize=auto;html=1;fontSize=12;startSize=8;endSize=8;" edge="1" parent="1" source="jg6SUQsdEgEUDbtEuBOz-229" target="jg6SUQsdEgEUDbtEuBOz-270">
          <mxGeometry relative="1" as="geometry" />
        </mxCell>
        <mxCell id="jg6SUQsdEgEUDbtEuBOz-229" value="정수&amp;nbsp;&lt;div&gt;num1, num2, num3&lt;/div&gt;&lt;div&gt;입력&lt;/div&gt;" style="shape=parallelogram;perimeter=parallelogramPerimeter;whiteSpace=wrap;html=1;fixedSize=1;" vertex="1" parent="1">
          <mxGeometry x="714" y="667" width="132" height="60" as="geometry" />
        </mxCell>
        <mxCell id="jg6SUQsdEgEUDbtEuBOz-230" value="프로그램 종료" style="shape=parallelogram;perimeter=parallelogramPerimeter;whiteSpace=wrap;html=1;fixedSize=1;" vertex="1" parent="1">
          <mxGeometry x="720" y="1273" width="120" height="60" as="geometry" />
        </mxCell>
        <mxCell id="jg6SUQsdEgEUDbtEuBOz-231" style="edgeStyle=none;curved=1;rounded=0;orthogonalLoop=1;jettySize=auto;html=1;entryX=0.5;entryY=0;entryDx=0;entryDy=0;entryPerimeter=0;fontSize=12;startSize=8;endSize=8;" edge="1" source="jg6SUQsdEgEUDbtEuBOz-230" target="jg6SUQsdEgEUDbtEuBOz-222" parent="1">
          <mxGeometry relative="1" as="geometry" />
        </mxCell>
        <mxCell id="jg6SUQsdEgEUDbtEuBOz-232" value="02 문제2_2" style="shape=umlFrame;whiteSpace=wrap;html=1;pointerEvents=0;width=100;height=40;" vertex="1" parent="1">
          <mxGeometry x="620" y="520" width="320" height="950" as="geometry" />
        </mxCell>
        <mxCell id="jg6SUQsdEgEUDbtEuBOz-241" value="no" style="text;html=1;align=center;verticalAlign=middle;resizable=0;points=[];autosize=1;strokeColor=none;fillColor=none;fontSize=16;" vertex="1" parent="1">
          <mxGeometry x="674" y="842" width="40" height="30" as="geometry" />
        </mxCell>
        <mxCell id="jg6SUQsdEgEUDbtEuBOz-243" value="yes" style="text;html=1;align=center;verticalAlign=middle;resizable=0;points=[];autosize=1;strokeColor=none;fillColor=none;fontSize=16;" vertex="1" parent="1">
          <mxGeometry x="790" y="1075" width="50" height="30" as="geometry" />
        </mxCell>
        <mxCell id="jg6SUQsdEgEUDbtEuBOz-247" style="edgeStyle=none;curved=1;rounded=0;orthogonalLoop=1;jettySize=auto;html=1;entryX=0.5;entryY=0;entryDx=0;entryDy=0;fontSize=12;startSize=8;endSize=8;" edge="1" source="jg6SUQsdEgEUDbtEuBOz-248" target="jg6SUQsdEgEUDbtEuBOz-256" parent="1">
          <mxGeometry relative="1" as="geometry" />
        </mxCell>
        <mxCell id="jg6SUQsdEgEUDbtEuBOz-248" value="시작" style="strokeWidth=2;html=1;shape=mxgraph.flowchart.terminator;whiteSpace=wrap;" vertex="1" parent="1">
          <mxGeometry x="1510" y="580" width="100" height="60" as="geometry" />
        </mxCell>
        <mxCell id="jg6SUQsdEgEUDbtEuBOz-249" value="끝" style="strokeWidth=2;html=1;shape=mxgraph.flowchart.terminator;whiteSpace=wrap;" vertex="1" parent="1">
          <mxGeometry x="1510" y="1360" width="100" height="60" as="geometry" />
        </mxCell>
        <mxCell id="jg6SUQsdEgEUDbtEuBOz-250" style="edgeStyle=none;curved=1;rounded=0;orthogonalLoop=1;jettySize=auto;html=1;fontSize=12;startSize=8;endSize=8;" edge="1" source="jg6SUQsdEgEUDbtEuBOz-251" target="jg6SUQsdEgEUDbtEuBOz-253" parent="1">
          <mxGeometry relative="1" as="geometry" />
        </mxCell>
        <mxCell id="jg6SUQsdEgEUDbtEuBOz-251" value="&lt;span style=&quot;padding: 0px 0px 0px 2px;&quot;&gt;&lt;span style=&quot;font-family: Consolas; font-size: 10pt; white-space: pre;&quot;&gt;&lt;font style=&quot;color: rgb(0, 0, 0);&quot;&gt;&lt;span style=&quot;text-decoration-line: underline; text-decoration-color: rgb(255, 128, 64); text-decoration-style: wavy;&quot;&gt;num&lt;/span&gt;%2==0&lt;/font&gt;&lt;/span&gt;&lt;/span&gt;&lt;div&gt;&lt;span style=&quot;padding: 0px 0px 0px 2px;&quot;&gt;&lt;span style=&quot;font-family: Consolas; font-size: 10pt; white-space: pre;&quot;&gt;&lt;font style=&quot;color: rgb(0, 0, 0);&quot;&gt;&amp;amp;&amp;amp;&lt;/font&gt;&lt;/span&gt;&lt;/span&gt;&lt;/div&gt;&lt;div&gt;&lt;span style=&quot;padding: 0px 0px 0px 2px;&quot;&gt;&lt;span style=&quot;font-family: Consolas; font-size: 10pt; white-space: pre;&quot;&gt;&lt;font style=&quot;color: rgb(0, 0, 0);&quot;&gt;&lt;span style=&quot;text-decoration-line: underline; text-decoration-color: rgb(255, 128, 64); text-decoration-style: wavy;&quot;&gt;num&lt;/span&gt;%3==0&lt;/font&gt;&lt;/span&gt;&lt;/span&gt;&lt;/div&gt;" style="strokeWidth=2;html=1;shape=mxgraph.flowchart.decision;whiteSpace=wrap;" vertex="1" parent="1">
          <mxGeometry x="1499" y="872" width="120" height="100" as="geometry" />
        </mxCell>
        <mxCell id="jg6SUQsdEgEUDbtEuBOz-252" style="edgeStyle=none;curved=0;rounded=0;orthogonalLoop=1;jettySize=auto;html=1;fontSize=12;startSize=8;endSize=8;endArrow=none;startFill=0;" edge="1" source="jg6SUQsdEgEUDbtEuBOz-253" parent="1">
          <mxGeometry relative="1" as="geometry">
            <mxPoint x="1900" y="1080" as="targetPoint" />
            <Array as="points">
              <mxPoint x="1900" y="922" />
            </Array>
          </mxGeometry>
        </mxCell>
        <mxCell id="jg6SUQsdEgEUDbtEuBOz-253" value="&lt;span style=&quot;padding: 0px 0px 0px 2px;&quot;&gt;&lt;span style=&quot;font-family: Consolas; font-size: 10pt; white-space: pre;&quot;&gt;&lt;font style=&quot;color: rgb(0, 0, 0);&quot;&gt;입력한 수 num&lt;span style=&quot;text-decoration-line: underline; text-decoration-color: rgb(255, 128, 64); text-decoration-style: wavy;&quot;&gt;은&lt;/span&gt;&lt;/font&gt;&lt;/span&gt;&lt;/span&gt;&lt;div&gt;&lt;span style=&quot;padding: 0px 0px 0px 2px;&quot;&gt;&lt;span style=&quot;font-family: Consolas; font-size: 10pt; white-space: pre;&quot;&gt;&lt;font style=&quot;color: rgb(0, 0, 0);&quot;&gt;짝수이고, &lt;/font&gt;&lt;/span&gt;&lt;/span&gt;&lt;span style=&quot;color: light-dark(rgb(0, 0, 0), rgb(237, 237, 237)); font-family: Consolas; font-size: 10pt; white-space: pre; background-color: transparent;&quot;&gt;3의 배수입니다.&lt;/span&gt;&lt;/div&gt;" style="strokeWidth=2;html=1;shape=mxgraph.flowchart.document2;whiteSpace=wrap;size=0.25;" vertex="1" parent="1">
          <mxGeometry x="1670" y="892" width="190" height="60" as="geometry" />
        </mxCell>
        <mxCell id="jg6SUQsdEgEUDbtEuBOz-254" value="yes" style="text;html=1;align=center;verticalAlign=middle;resizable=0;points=[];autosize=1;strokeColor=none;fillColor=none;fontSize=16;" vertex="1" parent="1">
          <mxGeometry x="1617" y="892" width="50" height="30" as="geometry" />
        </mxCell>
        <mxCell id="jg6SUQsdEgEUDbtEuBOz-255" style="edgeStyle=none;curved=1;rounded=0;orthogonalLoop=1;jettySize=auto;html=1;fontSize=12;startSize=8;endSize=8;" edge="1" source="jg6SUQsdEgEUDbtEuBOz-256" target="jg6SUQsdEgEUDbtEuBOz-251" parent="1">
          <mxGeometry relative="1" as="geometry" />
        </mxCell>
        <mxCell id="jg6SUQsdEgEUDbtEuBOz-256" value="정수&amp;nbsp;&lt;div&gt;num 입력&lt;/div&gt;" style="shape=parallelogram;perimeter=parallelogramPerimeter;whiteSpace=wrap;html=1;fixedSize=1;" vertex="1" parent="1">
          <mxGeometry x="1500" y="736" width="120" height="60" as="geometry" />
        </mxCell>
        <mxCell id="jg6SUQsdEgEUDbtEuBOz-257" value="프로그램 종료" style="shape=parallelogram;perimeter=parallelogramPerimeter;whiteSpace=wrap;html=1;fixedSize=1;" vertex="1" parent="1">
          <mxGeometry x="1500" y="1204" width="120" height="60" as="geometry" />
        </mxCell>
        <mxCell id="jg6SUQsdEgEUDbtEuBOz-258" style="edgeStyle=none;curved=1;rounded=0;orthogonalLoop=1;jettySize=auto;html=1;entryX=0.5;entryY=0;entryDx=0;entryDy=0;entryPerimeter=0;fontSize=12;startSize=8;endSize=8;" edge="1" source="jg6SUQsdEgEUDbtEuBOz-257" target="jg6SUQsdEgEUDbtEuBOz-249" parent="1">
          <mxGeometry relative="1" as="geometry" />
        </mxCell>
        <mxCell id="jg6SUQsdEgEUDbtEuBOz-259" value="02 문제4" style="shape=umlFrame;whiteSpace=wrap;html=1;pointerEvents=0;width=100;height=40;" vertex="1" parent="1">
          <mxGeometry x="1420" y="520" width="540" height="950" as="geometry" />
        </mxCell>
        <mxCell id="jg6SUQsdEgEUDbtEuBOz-260" value="no" style="text;html=1;align=center;verticalAlign=middle;resizable=0;points=[];autosize=1;strokeColor=none;fillColor=none;fontSize=16;" vertex="1" parent="1">
          <mxGeometry x="1520" y="972" width="40" height="30" as="geometry" />
        </mxCell>
        <mxCell id="jg6SUQsdEgEUDbtEuBOz-261" style="edgeStyle=none;curved=1;rounded=0;orthogonalLoop=1;jettySize=auto;html=1;entryX=0.5;entryY=0;entryDx=0;entryDy=0;fontSize=12;startSize=8;endSize=8;" edge="1" source="jg6SUQsdEgEUDbtEuBOz-262" target="jg6SUQsdEgEUDbtEuBOz-257" parent="1">
          <mxGeometry relative="1" as="geometry" />
        </mxCell>
        <mxCell id="jg6SUQsdEgEUDbtEuBOz-262" value="&lt;span style=&quot;padding: 0px 0px 0px 2px;&quot;&gt;&lt;span style=&quot;font-family: Consolas; font-size: 10pt; white-space: pre;&quot;&gt;&lt;font style=&quot;color: rgb(0, 0, 0);&quot;&gt;&lt;span style=&quot;text-decoration-line: underline; text-decoration-color: rgb(255, 128, 64); text-decoration-style: wavy;&quot;&gt;num&lt;/span&gt;%2==1&lt;/font&gt;&lt;/span&gt;&lt;/span&gt;&lt;div&gt;&lt;span style=&quot;padding: 0px 0px 0px 2px;&quot;&gt;&lt;span style=&quot;font-family: Consolas; font-size: 10pt; white-space: pre;&quot;&gt;&lt;font style=&quot;color: rgb(0, 0, 0);&quot;&gt;&amp;amp;&amp;amp;&lt;/font&gt;&lt;/span&gt;&lt;/span&gt;&lt;/div&gt;&lt;div&gt;&lt;span style=&quot;padding: 0px 0px 0px 2px;&quot;&gt;&lt;span style=&quot;font-family: Consolas; font-size: 10pt; white-space: pre;&quot;&gt;&lt;font style=&quot;color: rgb(0, 0, 0);&quot;&gt;&lt;span style=&quot;text-decoration-line: underline; text-decoration-color: rgb(255, 128, 64); text-decoration-style: wavy;&quot;&gt;num&lt;/span&gt;%5==0&lt;/font&gt;&lt;/span&gt;&lt;/span&gt;&lt;/div&gt;" style="strokeWidth=2;html=1;shape=mxgraph.flowchart.decision;whiteSpace=wrap;" vertex="1" parent="1">
          <mxGeometry x="1499" y="1028" width="120" height="100" as="geometry" />
        </mxCell>
        <mxCell id="jg6SUQsdEgEUDbtEuBOz-263" style="edgeStyle=none;curved=0;rounded=0;orthogonalLoop=1;jettySize=auto;html=1;entryX=1;entryY=0.5;entryDx=0;entryDy=0;fontSize=12;startSize=8;endSize=8;" edge="1" source="jg6SUQsdEgEUDbtEuBOz-264" target="jg6SUQsdEgEUDbtEuBOz-257" parent="1">
          <mxGeometry relative="1" as="geometry">
            <Array as="points">
              <mxPoint x="1900" y="1078" />
              <mxPoint x="1900" y="1234" />
            </Array>
          </mxGeometry>
        </mxCell>
        <mxCell id="jg6SUQsdEgEUDbtEuBOz-264" value="&lt;span style=&quot;padding: 0px 0px 0px 2px;&quot;&gt;&lt;span style=&quot;font-family: Consolas; font-size: 10pt; white-space: pre;&quot;&gt;&lt;font style=&quot;color: rgb(0, 0, 0);&quot;&gt;입력한 수 num&lt;span style=&quot;text-decoration-line: underline; text-decoration-color: rgb(255, 128, 64); text-decoration-style: wavy;&quot;&gt;은&lt;/span&gt;&lt;/font&gt;&lt;/span&gt;&lt;/span&gt;&lt;div&gt;&lt;span style=&quot;padding: 0px 0px 0px 2px;&quot;&gt;&lt;span style=&quot;font-family: Consolas; font-size: 10pt; white-space: pre;&quot;&gt;&lt;font style=&quot;color: rgb(0, 0, 0);&quot;&gt;홀수이고, 5&lt;/font&gt;&lt;/span&gt;&lt;/span&gt;&lt;span style=&quot;color: light-dark(rgb(0, 0, 0), rgb(237, 237, 237)); font-family: Consolas; font-size: 10pt; white-space: pre; background-color: transparent;&quot;&gt;의 배수입니다.&lt;/span&gt;&lt;/div&gt;" style="strokeWidth=2;html=1;shape=mxgraph.flowchart.document2;whiteSpace=wrap;size=0.25;" vertex="1" parent="1">
          <mxGeometry x="1670" y="1048" width="190" height="60" as="geometry" />
        </mxCell>
        <mxCell id="jg6SUQsdEgEUDbtEuBOz-265" style="edgeStyle=none;curved=1;rounded=0;orthogonalLoop=1;jettySize=auto;html=1;entryX=0.5;entryY=0;entryDx=0;entryDy=0;entryPerimeter=0;fontSize=12;startSize=8;endSize=8;" edge="1" source="jg6SUQsdEgEUDbtEuBOz-251" target="jg6SUQsdEgEUDbtEuBOz-262" parent="1">
          <mxGeometry relative="1" as="geometry" />
        </mxCell>
        <mxCell id="jg6SUQsdEgEUDbtEuBOz-266" value="no" style="text;html=1;align=center;verticalAlign=middle;resizable=0;points=[];autosize=1;strokeColor=none;fillColor=none;fontSize=16;" vertex="1" parent="1">
          <mxGeometry x="1520" y="1130" width="40" height="30" as="geometry" />
        </mxCell>
        <mxCell id="jg6SUQsdEgEUDbtEuBOz-267" style="edgeStyle=none;curved=1;rounded=0;orthogonalLoop=1;jettySize=auto;html=1;entryX=0;entryY=0.5;entryDx=0;entryDy=0;entryPerimeter=0;fontSize=12;startSize=8;endSize=8;" edge="1" source="jg6SUQsdEgEUDbtEuBOz-262" target="jg6SUQsdEgEUDbtEuBOz-264" parent="1">
          <mxGeometry relative="1" as="geometry" />
        </mxCell>
        <mxCell id="jg6SUQsdEgEUDbtEuBOz-268" value="yes" style="text;html=1;align=center;verticalAlign=middle;resizable=0;points=[];autosize=1;strokeColor=none;fillColor=none;fontSize=16;" vertex="1" parent="1">
          <mxGeometry x="1617" y="1048" width="50" height="30" as="geometry" />
        </mxCell>
        <mxCell id="jg6SUQsdEgEUDbtEuBOz-292" style="edgeStyle=none;curved=1;rounded=0;orthogonalLoop=1;jettySize=auto;html=1;fontSize=12;startSize=8;endSize=8;" edge="1" parent="1" source="jg6SUQsdEgEUDbtEuBOz-270" target="jg6SUQsdEgEUDbtEuBOz-224">
          <mxGeometry relative="1" as="geometry" />
        </mxCell>
        <mxCell id="jg6SUQsdEgEUDbtEuBOz-270" value="max = num1" style="html=1;whiteSpace=wrap;" vertex="1" parent="1">
          <mxGeometry x="725" y="758" width="110" height="50" as="geometry" />
        </mxCell>
        <mxCell id="jg6SUQsdEgEUDbtEuBOz-274" value="max = num2" style="html=1;whiteSpace=wrap;" vertex="1" parent="1">
          <mxGeometry x="725" y="932" width="110" height="50" as="geometry" />
        </mxCell>
        <mxCell id="jg6SUQsdEgEUDbtEuBOz-295" style="edgeStyle=none;curved=1;rounded=0;orthogonalLoop=1;jettySize=auto;html=1;entryX=0.5;entryY=0;entryDx=0;entryDy=0;fontSize=12;startSize=8;endSize=8;" edge="1" parent="1" source="jg6SUQsdEgEUDbtEuBOz-275" target="jg6SUQsdEgEUDbtEuBOz-276">
          <mxGeometry relative="1" as="geometry" />
        </mxCell>
        <mxCell id="jg6SUQsdEgEUDbtEuBOz-275" value="&lt;font face=&quot;Consolas&quot;&gt;&lt;span style=&quot;font-size: 13.3333px; white-space: pre;&quot;&gt;max&amp;lt;num3&lt;/span&gt;&lt;/font&gt;" style="strokeWidth=2;html=1;shape=mxgraph.flowchart.decision;whiteSpace=wrap;" vertex="1" parent="1">
          <mxGeometry x="720" y="993" width="120" height="100" as="geometry" />
        </mxCell>
        <mxCell id="jg6SUQsdEgEUDbtEuBOz-276" value="max = num3" style="html=1;whiteSpace=wrap;" vertex="1" parent="1">
          <mxGeometry x="725" y="1105" width="110" height="50" as="geometry" />
        </mxCell>
        <mxCell id="jg6SUQsdEgEUDbtEuBOz-297" style="edgeStyle=none;curved=1;rounded=0;orthogonalLoop=1;jettySize=auto;html=1;fontSize=12;startSize=8;endSize=8;" edge="1" parent="1" source="jg6SUQsdEgEUDbtEuBOz-277" target="jg6SUQsdEgEUDbtEuBOz-230">
          <mxGeometry relative="1" as="geometry" />
        </mxCell>
        <mxCell id="jg6SUQsdEgEUDbtEuBOz-277" value="큰 수 : max" style="strokeWidth=2;html=1;shape=mxgraph.flowchart.document2;whiteSpace=wrap;size=0.25;" vertex="1" parent="1">
          <mxGeometry x="730" y="1187" width="100" height="60" as="geometry" />
        </mxCell>
        <mxCell id="jg6SUQsdEgEUDbtEuBOz-290" style="edgeStyle=none;curved=0;rounded=0;orthogonalLoop=1;jettySize=auto;html=1;entryX=0;entryY=0.5;entryDx=0;entryDy=0;entryPerimeter=0;fontSize=12;startSize=8;endSize=8;" edge="1" parent="1" source="jg6SUQsdEgEUDbtEuBOz-224" target="jg6SUQsdEgEUDbtEuBOz-275">
          <mxGeometry relative="1" as="geometry">
            <Array as="points">
              <mxPoint x="660" y="870" />
              <mxPoint x="660" y="1043" />
            </Array>
          </mxGeometry>
        </mxCell>
        <mxCell id="jg6SUQsdEgEUDbtEuBOz-291" style="edgeStyle=none;curved=0;rounded=0;orthogonalLoop=1;jettySize=auto;html=1;entryX=1;entryY=0.5;entryDx=0;entryDy=0;entryPerimeter=0;fontSize=12;startSize=8;endSize=8;" edge="1" parent="1" source="jg6SUQsdEgEUDbtEuBOz-275" target="jg6SUQsdEgEUDbtEuBOz-277">
          <mxGeometry relative="1" as="geometry">
            <Array as="points">
              <mxPoint x="900" y="1043" />
              <mxPoint x="900" y="1217" />
            </Array>
          </mxGeometry>
        </mxCell>
        <mxCell id="jg6SUQsdEgEUDbtEuBOz-294" style="edgeStyle=none;curved=1;rounded=0;orthogonalLoop=1;jettySize=auto;html=1;entryX=0.5;entryY=0;entryDx=0;entryDy=0;entryPerimeter=0;fontSize=12;startSize=8;endSize=8;" edge="1" parent="1" source="jg6SUQsdEgEUDbtEuBOz-274" target="jg6SUQsdEgEUDbtEuBOz-275">
          <mxGeometry relative="1" as="geometry" />
        </mxCell>
        <mxCell id="jg6SUQsdEgEUDbtEuBOz-296" style="edgeStyle=none;curved=1;rounded=0;orthogonalLoop=1;jettySize=auto;html=1;entryX=0.5;entryY=0;entryDx=0;entryDy=0;entryPerimeter=0;fontSize=12;startSize=8;endSize=8;" edge="1" parent="1" source="jg6SUQsdEgEUDbtEuBOz-276" target="jg6SUQsdEgEUDbtEuBOz-277">
          <mxGeometry relative="1" as="geometry" />
        </mxCell>
        <mxCell id="jg6SUQsdEgEUDbtEuBOz-298" value="no" style="text;html=1;align=center;verticalAlign=middle;resizable=0;points=[];autosize=1;strokeColor=none;fillColor=none;fontSize=16;" vertex="1" parent="1">
          <mxGeometry x="850" y="1010" width="40" height="30" as="geometry" />
        </mxCell>
        <mxCell id="jg6SUQsdEgEUDbtEuBOz-301" style="edgeStyle=none;curved=1;rounded=0;orthogonalLoop=1;jettySize=auto;html=1;entryX=0.5;entryY=0;entryDx=0;entryDy=0;fontSize=12;startSize=8;endSize=8;" edge="1" source="jg6SUQsdEgEUDbtEuBOz-302" target="jg6SUQsdEgEUDbtEuBOz-308" parent="1">
          <mxGeometry relative="1" as="geometry" />
        </mxCell>
        <mxCell id="jg6SUQsdEgEUDbtEuBOz-302" value="시작" style="strokeWidth=2;html=1;shape=mxgraph.flowchart.terminator;whiteSpace=wrap;" vertex="1" parent="1">
          <mxGeometry x="1130" y="580" width="100" height="60" as="geometry" />
        </mxCell>
        <mxCell id="jg6SUQsdEgEUDbtEuBOz-303" value="끝" style="strokeWidth=2;html=1;shape=mxgraph.flowchart.terminator;whiteSpace=wrap;" vertex="1" parent="1">
          <mxGeometry x="1130" y="1360" width="100" height="60" as="geometry" />
        </mxCell>
        <mxCell id="jg6SUQsdEgEUDbtEuBOz-307" style="edgeStyle=none;curved=1;rounded=0;orthogonalLoop=1;jettySize=auto;html=1;fontSize=12;startSize=8;endSize=8;" edge="1" source="jg6SUQsdEgEUDbtEuBOz-308" target="jg6SUQsdEgEUDbtEuBOz-315" parent="1">
          <mxGeometry relative="1" as="geometry" />
        </mxCell>
        <mxCell id="jg6SUQsdEgEUDbtEuBOz-308" value="정수&amp;nbsp;&lt;div&gt;num1, num2, num3&lt;/div&gt;&lt;div&gt;입력&lt;/div&gt;" style="shape=parallelogram;perimeter=parallelogramPerimeter;whiteSpace=wrap;html=1;fixedSize=1;" vertex="1" parent="1">
          <mxGeometry x="1114" y="710" width="132" height="60" as="geometry" />
        </mxCell>
        <mxCell id="jg6SUQsdEgEUDbtEuBOz-309" value="프로그램 종료" style="shape=parallelogram;perimeter=parallelogramPerimeter;whiteSpace=wrap;html=1;fixedSize=1;" vertex="1" parent="1">
          <mxGeometry x="1120" y="1230" width="120" height="60" as="geometry" />
        </mxCell>
        <mxCell id="jg6SUQsdEgEUDbtEuBOz-310" style="edgeStyle=none;curved=1;rounded=0;orthogonalLoop=1;jettySize=auto;html=1;entryX=0.5;entryY=0;entryDx=0;entryDy=0;entryPerimeter=0;fontSize=12;startSize=8;endSize=8;" edge="1" source="jg6SUQsdEgEUDbtEuBOz-309" target="jg6SUQsdEgEUDbtEuBOz-303" parent="1">
          <mxGeometry relative="1" as="geometry" />
        </mxCell>
        <mxCell id="jg6SUQsdEgEUDbtEuBOz-311" value="02 문제2_2" style="shape=umlFrame;whiteSpace=wrap;html=1;pointerEvents=0;width=100;height=40;" vertex="1" parent="1">
          <mxGeometry x="1020" y="520" width="320" height="950" as="geometry" />
        </mxCell>
        <mxCell id="jg6SUQsdEgEUDbtEuBOz-328" style="edgeStyle=none;curved=1;rounded=0;orthogonalLoop=1;jettySize=auto;html=1;fontSize=12;startSize=8;endSize=8;" edge="1" parent="1" source="jg6SUQsdEgEUDbtEuBOz-315" target="jg6SUQsdEgEUDbtEuBOz-316">
          <mxGeometry relative="1" as="geometry" />
        </mxCell>
        <mxCell id="jg6SUQsdEgEUDbtEuBOz-315" value="&lt;span style=&quot;padding: 0px 0px 0px 2px;&quot;&gt;&lt;span style=&quot;font-family: Consolas; font-size: 10pt; white-space: pre;&quot;&gt;&lt;font style=&quot;color: rgb(0, 0, 0);&quot;&gt;sum=num1+num2+num3&lt;/font&gt;&lt;/span&gt;&lt;/span&gt;" style="html=1;whiteSpace=wrap;" vertex="1" parent="1">
          <mxGeometry x="1097.5" y="845" width="165" height="50" as="geometry" />
        </mxCell>
        <mxCell id="jg6SUQsdEgEUDbtEuBOz-316" value="&lt;span style=&quot;padding: 0px 0px 0px 2px;&quot;&gt;&lt;span style=&quot;font-family: Consolas; font-size: 10pt; white-space: pre;&quot;&gt;&lt;font style=&quot;color: rgb(0, 0, 0);&quot;&gt;double aver=(double)sum/3;&lt;/font&gt;&lt;/span&gt;&lt;/span&gt;" style="html=1;whiteSpace=wrap;" vertex="1" parent="1">
          <mxGeometry x="1067.5" y="975" width="225" height="50" as="geometry" />
        </mxCell>
        <mxCell id="jg6SUQsdEgEUDbtEuBOz-330" style="edgeStyle=none;curved=1;rounded=0;orthogonalLoop=1;jettySize=auto;html=1;fontSize=12;startSize=8;endSize=8;" edge="1" parent="1" source="jg6SUQsdEgEUDbtEuBOz-321" target="jg6SUQsdEgEUDbtEuBOz-309">
          <mxGeometry relative="1" as="geometry" />
        </mxCell>
        <mxCell id="jg6SUQsdEgEUDbtEuBOz-321" value="&lt;span style=&quot;padding: 0px 0px 0px 2px;&quot;&gt;&lt;span style=&quot;font-family: Consolas; font-size: 10pt; white-space: pre;&quot;&gt;&lt;font style=&quot;color: rgb(0, 0, 0);&quot;&gt;세 정수의 합은sum&lt;/font&gt;&lt;/span&gt;&lt;/span&gt;&lt;div&gt;&lt;span style=&quot;padding: 0px 0px 0px 2px;&quot;&gt;&lt;span style=&quot;font-family: Consolas; font-size: 10pt; white-space: pre;&quot;&gt;&lt;font style=&quot;color: rgb(0, 0, 0);&quot;&gt;평균은aver입니다.&lt;/font&gt;&lt;/span&gt;&lt;/span&gt;&lt;/div&gt;" style="strokeWidth=2;html=1;shape=mxgraph.flowchart.document2;whiteSpace=wrap;size=0.25;" vertex="1" parent="1">
          <mxGeometry x="1095" y="1100" width="170" height="60" as="geometry" />
        </mxCell>
        <mxCell id="jg6SUQsdEgEUDbtEuBOz-329" style="edgeStyle=none;curved=1;rounded=0;orthogonalLoop=1;jettySize=auto;html=1;entryX=0.5;entryY=0;entryDx=0;entryDy=0;entryPerimeter=0;fontSize=12;startSize=8;endSize=8;" edge="1" parent="1" source="jg6SUQsdEgEUDbtEuBOz-316" target="jg6SUQsdEgEUDbtEuBOz-321">
          <mxGeometry relative="1" as="geometry" />
        </mxCell>
      </root>
    </mxGraphModel>
  </diagram>
  <diagram id="LQMKznIGp2G_jhS1Sft_" name="회원가입 순서도">
    <mxGraphModel dx="1880" dy="982" grid="1" gridSize="10" guides="1" tooltips="1" connect="1" arrows="1" fold="1" page="0" pageScale="1" pageWidth="827" pageHeight="1169" math="0" shadow="0">
      <root>
        <mxCell id="0" />
        <mxCell id="1" parent="0" />
        <mxCell id="rfnhHzp3MV8u5xbydQ9R-2" value="시작" style="strokeWidth=2;html=1;shape=mxgraph.flowchart.terminator;whiteSpace=wrap;" vertex="1" parent="1">
          <mxGeometry x="-240" y="580" width="100" height="60" as="geometry" />
        </mxCell>
        <mxCell id="rfnhHzp3MV8u5xbydQ9R-3" value="끝" style="strokeWidth=2;html=1;shape=mxgraph.flowchart.terminator;whiteSpace=wrap;" vertex="1" parent="1">
          <mxGeometry x="-240" y="2020" width="100" height="60" as="geometry" />
        </mxCell>
        <mxCell id="rfnhHzp3MV8u5xbydQ9R-13" value="회원가입" style="shape=umlFrame;whiteSpace=wrap;html=1;pointerEvents=0;width=100;height=40;" vertex="1" parent="1">
          <mxGeometry x="-600" y="520" width="840" height="1630" as="geometry" />
        </mxCell>
        <mxCell id="rfnhHzp3MV8u5xbydQ9R-56" style="edgeStyle=none;curved=1;rounded=0;orthogonalLoop=1;jettySize=auto;html=1;entryX=0.5;entryY=0;entryDx=0;entryDy=0;fontSize=12;startSize=8;endSize=8;" edge="1" parent="1" source="rfnhHzp3MV8u5xbydQ9R-19" target="rfnhHzp3MV8u5xbydQ9R-20">
          <mxGeometry relative="1" as="geometry" />
        </mxCell>
        <mxCell id="rfnhHzp3MV8u5xbydQ9R-19" value="회원가입 폼" style="strokeWidth=2;html=1;shape=mxgraph.flowchart.document2;whiteSpace=wrap;size=0.25;" vertex="1" parent="1">
          <mxGeometry x="-255" y="683" width="130" height="60" as="geometry" />
        </mxCell>
        <mxCell id="rfnhHzp3MV8u5xbydQ9R-55" style="edgeStyle=none;curved=1;rounded=0;orthogonalLoop=1;jettySize=auto;html=1;entryX=0.5;entryY=0;entryDx=0;entryDy=0;fontSize=12;startSize=8;endSize=8;" edge="1" parent="1" source="rfnhHzp3MV8u5xbydQ9R-20" target="rfnhHzp3MV8u5xbydQ9R-21">
          <mxGeometry relative="1" as="geometry" />
        </mxCell>
        <mxCell id="rfnhHzp3MV8u5xbydQ9R-20" value="이메일 입력" style="shape=parallelogram;html=1;strokeWidth=2;perimeter=parallelogramPerimeter;whiteSpace=wrap;rounded=1;arcSize=12;size=0.23;" vertex="1" parent="1">
          <mxGeometry x="-260" y="786" width="140" height="60" as="geometry" />
        </mxCell>
        <mxCell id="rfnhHzp3MV8u5xbydQ9R-54" style="edgeStyle=none;curved=1;rounded=0;orthogonalLoop=1;jettySize=auto;html=1;fontSize=12;startSize=8;endSize=8;" edge="1" parent="1" source="rfnhHzp3MV8u5xbydQ9R-21" target="rfnhHzp3MV8u5xbydQ9R-24">
          <mxGeometry relative="1" as="geometry" />
        </mxCell>
        <mxCell id="rfnhHzp3MV8u5xbydQ9R-21" value="인증 버튼 클릭" style="shape=parallelogram;html=1;strokeWidth=2;perimeter=parallelogramPerimeter;whiteSpace=wrap;rounded=1;arcSize=12;size=0.23;" vertex="1" parent="1">
          <mxGeometry x="-260" y="889" width="140" height="60" as="geometry" />
        </mxCell>
        <mxCell id="rfnhHzp3MV8u5xbydQ9R-22" value="액션도 서버 입장에서는&lt;div&gt;입력받는 값이니까&lt;/div&gt;" style="text;html=1;align=left;verticalAlign=middle;resizable=0;points=[];autosize=1;strokeColor=none;fillColor=none;fontSize=12;" vertex="1" parent="1">
          <mxGeometry x="-120" y="870" width="150" height="40" as="geometry" />
        </mxCell>
        <mxCell id="rfnhHzp3MV8u5xbydQ9R-24" value="&lt;div&gt;입력된 이메일&lt;/div&gt;DB조회" style="rounded=1;whiteSpace=wrap;html=1;absoluteArcSize=1;arcSize=14;strokeWidth=2;" vertex="1" parent="1">
          <mxGeometry x="-255" y="996" width="130" height="50" as="geometry" />
        </mxCell>
        <mxCell id="rfnhHzp3MV8u5xbydQ9R-25" value="tbl_user" style="strokeWidth=2;html=1;shape=mxgraph.flowchart.database;whiteSpace=wrap;" vertex="1" parent="1">
          <mxGeometry x="-70" y="991" width="110" height="60" as="geometry" />
        </mxCell>
        <mxCell id="rfnhHzp3MV8u5xbydQ9R-32" style="edgeStyle=none;curved=0;rounded=0;orthogonalLoop=1;jettySize=auto;html=1;entryX=0;entryY=0.5;entryDx=0;entryDy=0;fontSize=12;startSize=8;endSize=8;exitX=0;exitY=0.5;exitDx=0;exitDy=0;exitPerimeter=0;" edge="1" parent="1" source="rfnhHzp3MV8u5xbydQ9R-26" target="rfnhHzp3MV8u5xbydQ9R-20">
          <mxGeometry relative="1" as="geometry">
            <Array as="points">
              <mxPoint x="-300" y="1124" />
              <mxPoint x="-300" y="816" />
            </Array>
          </mxGeometry>
        </mxCell>
        <mxCell id="rfnhHzp3MV8u5xbydQ9R-52" style="edgeStyle=none;curved=1;rounded=0;orthogonalLoop=1;jettySize=auto;html=1;fontSize=12;startSize=8;endSize=8;" edge="1" parent="1" source="rfnhHzp3MV8u5xbydQ9R-26" target="rfnhHzp3MV8u5xbydQ9R-29">
          <mxGeometry relative="1" as="geometry" />
        </mxCell>
        <mxCell id="rfnhHzp3MV8u5xbydQ9R-26" value="동일 계정이&lt;div&gt;존재하는가?&lt;/div&gt;" style="strokeWidth=2;html=1;shape=mxgraph.flowchart.decision;whiteSpace=wrap;" vertex="1" parent="1">
          <mxGeometry x="-255" y="1074" width="130" height="100" as="geometry" />
        </mxCell>
        <mxCell id="rfnhHzp3MV8u5xbydQ9R-27" value="&lt;p style=&quot;margin:0px;margin-top:4px;text-align:center;&quot;&gt;&lt;b&gt;메세지&lt;/b&gt;&lt;/p&gt;&lt;hr size=&quot;1&quot; style=&quot;border-style:solid;&quot;&gt;&lt;div style=&quot;height:2px;&quot;&gt;&amp;nbsp; 동일 계정이 존재합니다.&lt;/div&gt;" style="verticalAlign=top;align=left;overflow=fill;html=1;whiteSpace=wrap;" vertex="1" parent="1">
          <mxGeometry x="-510" y="935" width="140" height="50" as="geometry" />
        </mxCell>
        <mxCell id="rfnhHzp3MV8u5xbydQ9R-31" style="edgeStyle=none;curved=0;rounded=0;orthogonalLoop=1;jettySize=auto;html=1;entryX=1;entryY=0.5;entryDx=0;entryDy=0;fontSize=12;startSize=8;endSize=8;" edge="1" parent="1" target="rfnhHzp3MV8u5xbydQ9R-20">
          <mxGeometry relative="1" as="geometry">
            <mxPoint x="-120" y="1433" as="sourcePoint" />
            <Array as="points">
              <mxPoint x="80" y="1433" />
              <mxPoint x="80" y="816" />
            </Array>
          </mxGeometry>
        </mxCell>
        <mxCell id="rfnhHzp3MV8u5xbydQ9R-49" style="edgeStyle=none;curved=1;rounded=0;orthogonalLoop=1;jettySize=auto;html=1;entryX=0.5;entryY=0;entryDx=0;entryDy=0;fontSize=12;startSize=8;endSize=8;" edge="1" parent="1" source="rfnhHzp3MV8u5xbydQ9R-28" target="rfnhHzp3MV8u5xbydQ9R-33">
          <mxGeometry relative="1" as="geometry" />
        </mxCell>
        <mxCell id="rfnhHzp3MV8u5xbydQ9R-28" value="인증 코드가&lt;div&gt;올바른가?&lt;/div&gt;" style="strokeWidth=2;html=1;shape=mxgraph.flowchart.decision;whiteSpace=wrap;" vertex="1" parent="1">
          <mxGeometry x="-255" y="1383" width="130" height="100" as="geometry" />
        </mxCell>
        <mxCell id="rfnhHzp3MV8u5xbydQ9R-51" style="edgeStyle=none;curved=1;rounded=0;orthogonalLoop=1;jettySize=auto;html=1;entryX=0.5;entryY=0;entryDx=0;entryDy=0;fontSize=12;startSize=8;endSize=8;" edge="1" parent="1" source="rfnhHzp3MV8u5xbydQ9R-29" target="rfnhHzp3MV8u5xbydQ9R-30">
          <mxGeometry relative="1" as="geometry" />
        </mxCell>
        <mxCell id="rfnhHzp3MV8u5xbydQ9R-29" value="&lt;div&gt;이메일 인증 코드 발송&lt;/div&gt;&lt;div&gt;(외부 API)&lt;/div&gt;" style="rounded=1;whiteSpace=wrap;html=1;absoluteArcSize=1;arcSize=14;strokeWidth=2;" vertex="1" parent="1">
          <mxGeometry x="-255" y="1202" width="130" height="50" as="geometry" />
        </mxCell>
        <mxCell id="rfnhHzp3MV8u5xbydQ9R-30" value="인증 코드 입력" style="shape=parallelogram;html=1;strokeWidth=2;perimeter=parallelogramPerimeter;whiteSpace=wrap;rounded=1;arcSize=12;size=0.23;" vertex="1" parent="1">
          <mxGeometry x="-260" y="1300" width="140" height="60" as="geometry" />
        </mxCell>
        <mxCell id="rfnhHzp3MV8u5xbydQ9R-48" style="edgeStyle=none;curved=1;rounded=0;orthogonalLoop=1;jettySize=auto;html=1;entryX=0.5;entryY=0;entryDx=0;entryDy=0;fontSize=12;startSize=8;endSize=8;" edge="1" parent="1" source="rfnhHzp3MV8u5xbydQ9R-33" target="rfnhHzp3MV8u5xbydQ9R-34">
          <mxGeometry relative="1" as="geometry" />
        </mxCell>
        <mxCell id="rfnhHzp3MV8u5xbydQ9R-33" value="나머지 개인정보&lt;div&gt;입력&lt;/div&gt;" style="shape=parallelogram;html=1;strokeWidth=2;perimeter=parallelogramPerimeter;whiteSpace=wrap;rounded=1;arcSize=12;size=0.23;" vertex="1" parent="1">
          <mxGeometry x="-260" y="1506" width="140" height="60" as="geometry" />
        </mxCell>
        <mxCell id="rfnhHzp3MV8u5xbydQ9R-34" value="&lt;div&gt;유효성 검사&lt;/div&gt;" style="rounded=1;whiteSpace=wrap;html=1;absoluteArcSize=1;arcSize=14;strokeWidth=2;" vertex="1" parent="1">
          <mxGeometry x="-255" y="1614" width="130" height="50" as="geometry" />
        </mxCell>
        <mxCell id="rfnhHzp3MV8u5xbydQ9R-36" style="edgeStyle=none;curved=0;rounded=0;orthogonalLoop=1;jettySize=auto;html=1;entryX=0;entryY=0.5;entryDx=0;entryDy=0;fontSize=12;startSize=8;endSize=8;" edge="1" parent="1" source="rfnhHzp3MV8u5xbydQ9R-35" target="rfnhHzp3MV8u5xbydQ9R-33">
          <mxGeometry relative="1" as="geometry">
            <Array as="points">
              <mxPoint x="-320" y="1740" />
              <mxPoint x="-320" y="1536" />
            </Array>
          </mxGeometry>
        </mxCell>
        <mxCell id="rfnhHzp3MV8u5xbydQ9R-46" style="edgeStyle=none;curved=1;rounded=0;orthogonalLoop=1;jettySize=auto;html=1;entryX=0.5;entryY=0;entryDx=0;entryDy=0;fontSize=12;startSize=8;endSize=8;" edge="1" parent="1" source="rfnhHzp3MV8u5xbydQ9R-35" target="rfnhHzp3MV8u5xbydQ9R-37">
          <mxGeometry relative="1" as="geometry" />
        </mxCell>
        <mxCell id="rfnhHzp3MV8u5xbydQ9R-35" value="&lt;div&gt;입력된&lt;/div&gt;데이터가 올바른가?" style="strokeWidth=2;html=1;shape=mxgraph.flowchart.decision;whiteSpace=wrap;" vertex="1" parent="1">
          <mxGeometry x="-255" y="1691" width="130" height="100" as="geometry" />
        </mxCell>
        <mxCell id="rfnhHzp3MV8u5xbydQ9R-37" value="DB 회원정보 저장" style="rounded=1;whiteSpace=wrap;html=1;absoluteArcSize=1;arcSize=14;strokeWidth=2;" vertex="1" parent="1">
          <mxGeometry x="-255" y="1819" width="130" height="50" as="geometry" />
        </mxCell>
        <mxCell id="rfnhHzp3MV8u5xbydQ9R-38" value="tbl_user" style="strokeWidth=2;html=1;shape=mxgraph.flowchart.database;whiteSpace=wrap;" vertex="1" parent="1">
          <mxGeometry x="-70" y="1814" width="110" height="60" as="geometry" />
        </mxCell>
        <mxCell id="rfnhHzp3MV8u5xbydQ9R-40" value="로그인 페이지로 전환" style="strokeWidth=2;html=1;shape=mxgraph.flowchart.document2;whiteSpace=wrap;size=0.25;" vertex="1" parent="1">
          <mxGeometry x="-255" y="1917" width="130" height="60" as="geometry" />
        </mxCell>
        <mxCell id="rfnhHzp3MV8u5xbydQ9R-41" value="&lt;p style=&quot;margin:0px;margin-top:4px;text-align:center;&quot;&gt;&lt;b&gt;메세지&lt;/b&gt;&lt;/p&gt;&lt;hr size=&quot;1&quot; style=&quot;border-style:solid;&quot;&gt;&lt;div style=&quot;height:2px;&quot;&gt;&amp;nbsp; PW의 복잡도 여부 등등&lt;/div&gt;" style="verticalAlign=top;align=left;overflow=fill;html=1;whiteSpace=wrap;" vertex="1" parent="1">
          <mxGeometry x="-490" y="1600" width="140" height="50" as="geometry" />
        </mxCell>
        <mxCell id="rfnhHzp3MV8u5xbydQ9R-42" value="&lt;p style=&quot;margin:0px;margin-top:4px;text-align:center;&quot;&gt;&lt;b&gt;메세지&lt;/b&gt;&lt;/p&gt;&lt;hr size=&quot;1&quot; style=&quot;border-style:solid;&quot;&gt;&lt;div style=&quot;height:2px;&quot;&gt;&amp;nbsp; &amp;nbsp;회원가입을 완료 했습니다.&lt;/div&gt;" style="verticalAlign=top;align=left;overflow=fill;html=1;whiteSpace=wrap;" vertex="1" parent="1">
          <mxGeometry y="1900" width="160" height="50" as="geometry" />
        </mxCell>
        <mxCell id="rfnhHzp3MV8u5xbydQ9R-43" style="edgeStyle=none;curved=0;rounded=0;orthogonalLoop=1;jettySize=auto;html=1;entryX=1;entryY=0.5;entryDx=0;entryDy=0;entryPerimeter=0;fontSize=12;startSize=8;endSize=8;" edge="1" parent="1" source="rfnhHzp3MV8u5xbydQ9R-38" target="rfnhHzp3MV8u5xbydQ9R-40">
          <mxGeometry relative="1" as="geometry">
            <Array as="points">
              <mxPoint x="-15" y="1947" />
            </Array>
          </mxGeometry>
        </mxCell>
        <mxCell id="rfnhHzp3MV8u5xbydQ9R-44" style="edgeStyle=none;curved=1;rounded=0;orthogonalLoop=1;jettySize=auto;html=1;entryX=0.5;entryY=0;entryDx=0;entryDy=0;entryPerimeter=0;fontSize=12;startSize=8;endSize=8;" edge="1" parent="1" source="rfnhHzp3MV8u5xbydQ9R-40" target="rfnhHzp3MV8u5xbydQ9R-3">
          <mxGeometry relative="1" as="geometry" />
        </mxCell>
        <mxCell id="rfnhHzp3MV8u5xbydQ9R-47" style="edgeStyle=none;curved=1;rounded=0;orthogonalLoop=1;jettySize=auto;html=1;entryX=0.5;entryY=0;entryDx=0;entryDy=0;entryPerimeter=0;fontSize=12;startSize=8;endSize=8;" edge="1" parent="1" source="rfnhHzp3MV8u5xbydQ9R-34" target="rfnhHzp3MV8u5xbydQ9R-35">
          <mxGeometry relative="1" as="geometry" />
        </mxCell>
        <mxCell id="rfnhHzp3MV8u5xbydQ9R-50" style="edgeStyle=none;curved=1;rounded=0;orthogonalLoop=1;jettySize=auto;html=1;entryX=0.5;entryY=0;entryDx=0;entryDy=0;entryPerimeter=0;fontSize=12;startSize=8;endSize=8;" edge="1" parent="1" source="rfnhHzp3MV8u5xbydQ9R-30" target="rfnhHzp3MV8u5xbydQ9R-28">
          <mxGeometry relative="1" as="geometry" />
        </mxCell>
        <mxCell id="rfnhHzp3MV8u5xbydQ9R-57" style="edgeStyle=none;curved=1;rounded=0;orthogonalLoop=1;jettySize=auto;html=1;entryX=0.5;entryY=0;entryDx=0;entryDy=0;entryPerimeter=0;fontSize=12;startSize=8;endSize=8;" edge="1" parent="1" source="rfnhHzp3MV8u5xbydQ9R-2" target="rfnhHzp3MV8u5xbydQ9R-19">
          <mxGeometry relative="1" as="geometry" />
        </mxCell>
        <mxCell id="rfnhHzp3MV8u5xbydQ9R-58" style="edgeStyle=none;curved=1;rounded=0;orthogonalLoop=1;jettySize=auto;html=1;entryX=0;entryY=0.5;entryDx=0;entryDy=0;entryPerimeter=0;fontSize=12;startSize=8;endSize=8;" edge="1" parent="1" source="rfnhHzp3MV8u5xbydQ9R-24" target="rfnhHzp3MV8u5xbydQ9R-25">
          <mxGeometry relative="1" as="geometry" />
        </mxCell>
        <mxCell id="rfnhHzp3MV8u5xbydQ9R-59" style="edgeStyle=none;curved=0;rounded=0;orthogonalLoop=1;jettySize=auto;html=1;entryX=1;entryY=0.5;entryDx=0;entryDy=0;entryPerimeter=0;fontSize=12;startSize=8;endSize=8;" edge="1" parent="1" source="rfnhHzp3MV8u5xbydQ9R-25" target="rfnhHzp3MV8u5xbydQ9R-26">
          <mxGeometry relative="1" as="geometry">
            <Array as="points">
              <mxPoint x="-15" y="1124" />
            </Array>
          </mxGeometry>
        </mxCell>
        <mxCell id="rfnhHzp3MV8u5xbydQ9R-60" style="edgeStyle=none;curved=1;rounded=0;orthogonalLoop=1;jettySize=auto;html=1;entryX=0;entryY=0.5;entryDx=0;entryDy=0;entryPerimeter=0;fontSize=12;startSize=8;endSize=8;" edge="1" parent="1" source="rfnhHzp3MV8u5xbydQ9R-37" target="rfnhHzp3MV8u5xbydQ9R-38">
          <mxGeometry relative="1" as="geometry" />
        </mxCell>
        <mxCell id="0jUszlqAgH105AlML3VU-1" value="yes" style="text;html=1;align=center;verticalAlign=middle;resizable=0;points=[];autosize=1;strokeColor=none;fillColor=none;fontSize=16;" vertex="1" parent="1">
          <mxGeometry x="-301" y="1094" width="50" height="30" as="geometry" />
        </mxCell>
        <mxCell id="0jUszlqAgH105AlML3VU-2" value="no" style="text;html=1;align=center;verticalAlign=middle;resizable=0;points=[];autosize=1;strokeColor=none;fillColor=none;fontSize=16;" vertex="1" parent="1">
          <mxGeometry x="-190" y="1172" width="40" height="30" as="geometry" />
        </mxCell>
        <mxCell id="0jUszlqAgH105AlML3VU-3" value="yes" style="text;html=1;align=center;verticalAlign=middle;resizable=0;points=[];autosize=1;strokeColor=none;fillColor=none;fontSize=16;" vertex="1" parent="1">
          <mxGeometry x="-190" y="1475" width="50" height="30" as="geometry" />
        </mxCell>
        <mxCell id="0jUszlqAgH105AlML3VU-4" value="no" style="text;html=1;align=center;verticalAlign=middle;resizable=0;points=[];autosize=1;strokeColor=none;fillColor=none;fontSize=16;" vertex="1" parent="1">
          <mxGeometry x="-120" y="1402" width="40" height="30" as="geometry" />
        </mxCell>
        <mxCell id="0jUszlqAgH105AlML3VU-5" value="yes" style="text;html=1;align=center;verticalAlign=middle;resizable=0;points=[];autosize=1;strokeColor=none;fillColor=none;fontSize=16;" vertex="1" parent="1">
          <mxGeometry x="-190" y="1786" width="50" height="30" as="geometry" />
        </mxCell>
        <mxCell id="0jUszlqAgH105AlML3VU-6" value="no" style="text;html=1;align=center;verticalAlign=middle;resizable=0;points=[];autosize=1;strokeColor=none;fillColor=none;fontSize=16;" vertex="1" parent="1">
          <mxGeometry x="-291" y="1710" width="40" height="30" as="geometry" />
        </mxCell>
      </root>
    </mxGraphModel>
  </diagram>
  <diagram id="sZNIu8LSaFc4sDqdT-aA" name="Ch7-C01while문">
    <mxGraphModel dx="113" dy="705" grid="1" gridSize="10" guides="1" tooltips="1" connect="1" arrows="1" fold="1" page="0" pageScale="1" pageWidth="827" pageHeight="1169" math="0" shadow="0">
      <root>
        <mxCell id="0" />
        <mxCell id="1" parent="0" />
        <mxCell id="edeyvqpEv7L28sVSyzHa-1" style="edgeStyle=none;curved=1;rounded=0;orthogonalLoop=1;jettySize=auto;html=1;entryX=0.5;entryY=0;entryDx=0;entryDy=0;fontSize=12;startSize=8;endSize=8;" edge="1" parent="1" source="edeyvqpEv7L28sVSyzHa-2" target="edeyvqpEv7L28sVSyzHa-5">
          <mxGeometry relative="1" as="geometry" />
        </mxCell>
        <mxCell id="edeyvqpEv7L28sVSyzHa-2" value="시작" style="strokeWidth=2;html=1;shape=mxgraph.flowchart.terminator;whiteSpace=wrap;" vertex="1" parent="1">
          <mxGeometry x="1130" y="580" width="100" height="60" as="geometry" />
        </mxCell>
        <mxCell id="edeyvqpEv7L28sVSyzHa-3" value="끝" style="strokeWidth=2;html=1;shape=mxgraph.flowchart.terminator;whiteSpace=wrap;" vertex="1" parent="1">
          <mxGeometry x="1130" y="1360" width="100" height="60" as="geometry" />
        </mxCell>
        <mxCell id="edeyvqpEv7L28sVSyzHa-5" value="정수&amp;nbsp;&lt;div&gt;n, m&amp;nbsp;&lt;span style=&quot;background-color: transparent; color: light-dark(rgb(0, 0, 0), rgb(255, 255, 255));&quot;&gt;입력&lt;/span&gt;&lt;/div&gt;" style="shape=parallelogram;perimeter=parallelogramPerimeter;whiteSpace=wrap;html=1;fixedSize=1;" vertex="1" parent="1">
          <mxGeometry x="1114" y="678" width="132" height="60" as="geometry" />
        </mxCell>
        <mxCell id="edeyvqpEv7L28sVSyzHa-8" value="01 문제_N부터 M까지의 합" style="shape=umlFrame;whiteSpace=wrap;html=1;pointerEvents=0;width=180;height=40;" vertex="1" parent="1">
          <mxGeometry x="1020" y="520" width="320" height="950" as="geometry" />
        </mxCell>
        <mxCell id="edeyvqpEv7L28sVSyzHa-25" style="edgeStyle=none;curved=0;rounded=0;orthogonalLoop=1;jettySize=auto;html=1;entryX=0;entryY=0.5;entryDx=0;entryDy=0;fontSize=12;startSize=8;endSize=8;endArrow=classic;startFill=0;startArrow=none;endFill=1;" edge="1" parent="1" source="edeyvqpEv7L28sVSyzHa-15" target="edeyvqpEv7L28sVSyzHa-17">
          <mxGeometry relative="1" as="geometry">
            <Array as="points">
              <mxPoint x="1080" y="805" />
              <mxPoint x="1080" y="1000" />
            </Array>
          </mxGeometry>
        </mxCell>
        <mxCell id="edeyvqpEv7L28sVSyzHa-30" style="edgeStyle=none;curved=1;rounded=0;orthogonalLoop=1;jettySize=auto;html=1;entryX=0.5;entryY=0;entryDx=0;entryDy=0;fontSize=12;startSize=8;endSize=8;" edge="1" parent="1" source="edeyvqpEv7L28sVSyzHa-15" target="edeyvqpEv7L28sVSyzHa-16">
          <mxGeometry relative="1" as="geometry" />
        </mxCell>
        <mxCell id="edeyvqpEv7L28sVSyzHa-15" value="n&amp;gt;=m" style="strokeWidth=2;html=1;shape=mxgraph.flowchart.decision;whiteSpace=wrap;" vertex="1" parent="1">
          <mxGeometry x="1130" y="755" width="100" height="100" as="geometry" />
        </mxCell>
        <mxCell id="edeyvqpEv7L28sVSyzHa-31" style="edgeStyle=none;curved=1;rounded=0;orthogonalLoop=1;jettySize=auto;html=1;fontSize=12;startSize=8;endSize=8;" edge="1" parent="1" source="edeyvqpEv7L28sVSyzHa-16" target="edeyvqpEv7L28sVSyzHa-17">
          <mxGeometry relative="1" as="geometry" />
        </mxCell>
        <mxCell id="edeyvqpEv7L28sVSyzHa-16" value="tmp=n&lt;div&gt;n=m&lt;/div&gt;&lt;div&gt;m=tmp&lt;/div&gt;" style="html=1;whiteSpace=wrap;" vertex="1" parent="1">
          <mxGeometry x="1125" y="878" width="110" height="50" as="geometry" />
        </mxCell>
        <mxCell id="edeyvqpEv7L28sVSyzHa-17" value="i=n&lt;div&gt;sum=0&lt;/div&gt;" style="html=1;whiteSpace=wrap;" vertex="1" parent="1">
          <mxGeometry x="1125" y="975" width="110" height="50" as="geometry" />
        </mxCell>
        <mxCell id="edeyvqpEv7L28sVSyzHa-26" style="edgeStyle=none;curved=0;rounded=0;orthogonalLoop=1;jettySize=auto;html=1;entryX=0;entryY=0.5;entryDx=0;entryDy=0;fontSize=12;startSize=8;endSize=8;" edge="1" parent="1" source="edeyvqpEv7L28sVSyzHa-19" target="edeyvqpEv7L28sVSyzHa-24">
          <mxGeometry relative="1" as="geometry">
            <Array as="points">
              <mxPoint x="1080" y="1098" />
              <mxPoint x="1080" y="1293" />
            </Array>
          </mxGeometry>
        </mxCell>
        <mxCell id="edeyvqpEv7L28sVSyzHa-27" style="edgeStyle=none;curved=1;rounded=0;orthogonalLoop=1;jettySize=auto;html=1;entryX=0.5;entryY=0;entryDx=0;entryDy=0;fontSize=12;startSize=8;endSize=8;" edge="1" parent="1" source="edeyvqpEv7L28sVSyzHa-19" target="edeyvqpEv7L28sVSyzHa-20">
          <mxGeometry relative="1" as="geometry" />
        </mxCell>
        <mxCell id="edeyvqpEv7L28sVSyzHa-19" value="i&amp;lt;=m" style="strokeWidth=2;html=1;shape=mxgraph.flowchart.decision;whiteSpace=wrap;" vertex="1" parent="1">
          <mxGeometry x="1130" y="1048" width="100" height="100" as="geometry" />
        </mxCell>
        <mxCell id="edeyvqpEv7L28sVSyzHa-20" value="sum += i&lt;div&gt;i++&lt;/div&gt;" style="html=1;whiteSpace=wrap;" vertex="1" parent="1">
          <mxGeometry x="1125" y="1170" width="110" height="50" as="geometry" />
        </mxCell>
        <mxCell id="edeyvqpEv7L28sVSyzHa-23" style="edgeStyle=none;curved=0;rounded=0;orthogonalLoop=1;jettySize=auto;html=1;entryX=1;entryY=0.5;entryDx=0;entryDy=0;entryPerimeter=0;fontSize=12;startSize=8;endSize=8;" edge="1" parent="1" source="edeyvqpEv7L28sVSyzHa-20" target="edeyvqpEv7L28sVSyzHa-19">
          <mxGeometry relative="1" as="geometry">
            <Array as="points">
              <mxPoint x="1280" y="1195" />
              <mxPoint x="1280" y="1098" />
            </Array>
          </mxGeometry>
        </mxCell>
        <mxCell id="edeyvqpEv7L28sVSyzHa-24" value="sum 출력" style="shape=parallelogram;perimeter=parallelogramPerimeter;whiteSpace=wrap;html=1;fixedSize=1;" vertex="1" parent="1">
          <mxGeometry x="1114" y="1263" width="132" height="60" as="geometry" />
        </mxCell>
        <mxCell id="edeyvqpEv7L28sVSyzHa-28" style="edgeStyle=none;curved=1;rounded=0;orthogonalLoop=1;jettySize=auto;html=1;entryX=0.5;entryY=0;entryDx=0;entryDy=0;entryPerimeter=0;fontSize=12;startSize=8;endSize=8;" edge="1" parent="1" source="edeyvqpEv7L28sVSyzHa-24" target="edeyvqpEv7L28sVSyzHa-3">
          <mxGeometry relative="1" as="geometry" />
        </mxCell>
        <mxCell id="edeyvqpEv7L28sVSyzHa-29" style="edgeStyle=none;curved=1;rounded=0;orthogonalLoop=1;jettySize=auto;html=1;entryX=0.5;entryY=0;entryDx=0;entryDy=0;entryPerimeter=0;fontSize=12;startSize=8;endSize=8;" edge="1" parent="1" source="edeyvqpEv7L28sVSyzHa-17" target="edeyvqpEv7L28sVSyzHa-19">
          <mxGeometry relative="1" as="geometry" />
        </mxCell>
        <mxCell id="edeyvqpEv7L28sVSyzHa-33" style="edgeStyle=none;curved=1;rounded=0;orthogonalLoop=1;jettySize=auto;html=1;entryX=0.5;entryY=0;entryDx=0;entryDy=0;entryPerimeter=0;fontSize=12;startSize=8;endSize=8;" edge="1" parent="1" source="edeyvqpEv7L28sVSyzHa-5" target="edeyvqpEv7L28sVSyzHa-15">
          <mxGeometry relative="1" as="geometry" />
        </mxCell>
        <mxCell id="m5PXi9iBNOR2YwBBnuX8-1" value="yes" style="text;html=1;align=center;verticalAlign=middle;resizable=0;points=[];autosize=1;strokeColor=none;fillColor=none;fontSize=16;rotation=0;" vertex="1" parent="1">
          <mxGeometry x="1180" y="848" width="50" height="30" as="geometry" />
        </mxCell>
        <mxCell id="m5PXi9iBNOR2YwBBnuX8-2" value="no" style="text;html=1;align=center;verticalAlign=middle;resizable=0;points=[];autosize=1;strokeColor=none;fillColor=none;fontSize=16;" vertex="1" parent="1">
          <mxGeometry x="1090" y="779" width="40" height="30" as="geometry" />
        </mxCell>
        <mxCell id="m5PXi9iBNOR2YwBBnuX8-3" value="yes" style="text;html=1;align=center;verticalAlign=middle;resizable=0;points=[];autosize=1;strokeColor=none;fillColor=none;fontSize=16;rotation=0;" vertex="1" parent="1">
          <mxGeometry x="1180" y="1140" width="50" height="30" as="geometry" />
        </mxCell>
        <mxCell id="m5PXi9iBNOR2YwBBnuX8-4" value="no" style="text;html=1;align=center;verticalAlign=middle;resizable=0;points=[];autosize=1;strokeColor=none;fillColor=none;fontSize=16;" vertex="1" parent="1">
          <mxGeometry x="1090" y="1070" width="40" height="30" as="geometry" />
        </mxCell>
      </root>
    </mxGraphModel>
  </diagram>
  <diagram id="nHPXlqVXbGxGL9sojc49" name="Ch7-C02while문">
    <mxGraphModel dx="391" dy="875" grid="1" gridSize="10" guides="1" tooltips="1" connect="1" arrows="1" fold="1" page="0" pageScale="1" pageWidth="827" pageHeight="1169" math="0" shadow="0">
      <root>
        <mxCell id="0" />
        <mxCell id="1" parent="0" />
        <mxCell id="bzPX4BFU55xg0Kx-pEOn-2" value="시작" style="strokeWidth=2;html=1;shape=mxgraph.flowchart.terminator;whiteSpace=wrap;" vertex="1" parent="1">
          <mxGeometry x="1130" y="580" width="100" height="60" as="geometry" />
        </mxCell>
        <mxCell id="bzPX4BFU55xg0Kx-pEOn-3" value="끝" style="strokeWidth=2;html=1;shape=mxgraph.flowchart.terminator;whiteSpace=wrap;" vertex="1" parent="1">
          <mxGeometry x="1130" y="1830" width="100" height="60" as="geometry" />
        </mxCell>
        <mxCell id="bzPX4BFU55xg0Kx-pEOn-5" value="별문제_역 정삼각형" style="shape=umlFrame;whiteSpace=wrap;html=1;pointerEvents=0;width=180;height=40;" vertex="1" parent="1">
          <mxGeometry x="990" y="520" width="380" height="1400" as="geometry" />
        </mxCell>
        <mxCell id="bzPX4BFU55xg0Kx-pEOn-10" value="i=0" style="html=1;whiteSpace=wrap;" vertex="1" parent="1">
          <mxGeometry x="1125" y="681" width="110" height="50" as="geometry" />
        </mxCell>
        <mxCell id="bzPX4BFU55xg0Kx-pEOn-25" value="i&amp;lt;4" style="rhombus;whiteSpace=wrap;html=1;" vertex="1" parent="1">
          <mxGeometry x="1140" y="762" width="80" height="80" as="geometry" />
        </mxCell>
        <mxCell id="bzPX4BFU55xg0Kx-pEOn-56" style="edgeStyle=none;curved=1;rounded=0;orthogonalLoop=1;jettySize=auto;html=1;entryX=0.5;entryY=0;entryDx=0;entryDy=0;fontSize=12;startSize=8;endSize=8;" edge="1" parent="1" source="bzPX4BFU55xg0Kx-pEOn-26" target="bzPX4BFU55xg0Kx-pEOn-27">
          <mxGeometry relative="1" as="geometry" />
        </mxCell>
        <mxCell id="bzPX4BFU55xg0Kx-pEOn-26" value="j=0" style="html=1;whiteSpace=wrap;" vertex="1" parent="1">
          <mxGeometry x="1125" y="873" width="110" height="50" as="geometry" />
        </mxCell>
        <mxCell id="bzPX4BFU55xg0Kx-pEOn-29" value="" style="edgeStyle=none;curved=1;rounded=0;orthogonalLoop=1;jettySize=auto;html=1;fontSize=12;startSize=8;endSize=8;" edge="1" parent="1" source="bzPX4BFU55xg0Kx-pEOn-27" target="bzPX4BFU55xg0Kx-pEOn-28">
          <mxGeometry relative="1" as="geometry" />
        </mxCell>
        <mxCell id="bzPX4BFU55xg0Kx-pEOn-35" style="edgeStyle=none;curved=0;rounded=0;orthogonalLoop=1;jettySize=auto;html=1;exitX=0;exitY=0.5;exitDx=0;exitDy=0;entryX=0;entryY=0.5;entryDx=0;entryDy=0;fontSize=12;startSize=8;endSize=8;" edge="1" parent="1" source="bzPX4BFU55xg0Kx-pEOn-27" target="bzPX4BFU55xg0Kx-pEOn-32">
          <mxGeometry relative="1" as="geometry">
            <Array as="points">
              <mxPoint x="1080" y="995" />
              <mxPoint x="1080" y="1280" />
            </Array>
          </mxGeometry>
        </mxCell>
        <mxCell id="bzPX4BFU55xg0Kx-pEOn-27" value="i&amp;lt;3-i" style="rhombus;whiteSpace=wrap;html=1;" vertex="1" parent="1">
          <mxGeometry x="1140" y="955" width="80" height="80" as="geometry" />
        </mxCell>
        <mxCell id="bzPX4BFU55xg0Kx-pEOn-31" value="" style="edgeStyle=none;curved=1;rounded=0;orthogonalLoop=1;jettySize=auto;html=1;fontSize=12;startSize=8;endSize=8;" edge="1" parent="1" source="bzPX4BFU55xg0Kx-pEOn-28" target="bzPX4BFU55xg0Kx-pEOn-30">
          <mxGeometry relative="1" as="geometry" />
        </mxCell>
        <mxCell id="bzPX4BFU55xg0Kx-pEOn-28" value="&quot; &quot;추가" style="shape=parallelogram;perimeter=parallelogramPerimeter;whiteSpace=wrap;html=1;fixedSize=1;" vertex="1" parent="1">
          <mxGeometry x="1120" y="1061" width="120" height="60" as="geometry" />
        </mxCell>
        <mxCell id="bzPX4BFU55xg0Kx-pEOn-34" style="edgeStyle=none;curved=0;rounded=0;orthogonalLoop=1;jettySize=auto;html=1;exitX=1;exitY=0.5;exitDx=0;exitDy=0;entryX=1;entryY=0.5;entryDx=0;entryDy=0;fontSize=12;startSize=8;endSize=8;" edge="1" parent="1" source="bzPX4BFU55xg0Kx-pEOn-30" target="bzPX4BFU55xg0Kx-pEOn-27">
          <mxGeometry relative="1" as="geometry">
            <Array as="points">
              <mxPoint x="1280" y="1187" />
              <mxPoint x="1280" y="995" />
            </Array>
          </mxGeometry>
        </mxCell>
        <mxCell id="bzPX4BFU55xg0Kx-pEOn-30" value="j++" style="whiteSpace=wrap;html=1;" vertex="1" parent="1">
          <mxGeometry x="1120" y="1157" width="120" height="60" as="geometry" />
        </mxCell>
        <mxCell id="bzPX4BFU55xg0Kx-pEOn-37" value="" style="edgeStyle=none;curved=1;rounded=0;orthogonalLoop=1;jettySize=auto;html=1;fontSize=12;startSize=8;endSize=8;" edge="1" parent="1" source="bzPX4BFU55xg0Kx-pEOn-32" target="bzPX4BFU55xg0Kx-pEOn-36">
          <mxGeometry relative="1" as="geometry" />
        </mxCell>
        <mxCell id="bzPX4BFU55xg0Kx-pEOn-32" value="k=0" style="whiteSpace=wrap;html=1;" vertex="1" parent="1">
          <mxGeometry x="1120" y="1253" width="120" height="60" as="geometry" />
        </mxCell>
        <mxCell id="bzPX4BFU55xg0Kx-pEOn-39" value="" style="edgeStyle=none;curved=1;rounded=0;orthogonalLoop=1;jettySize=auto;html=1;fontSize=12;startSize=8;endSize=8;" edge="1" parent="1" source="bzPX4BFU55xg0Kx-pEOn-36" target="bzPX4BFU55xg0Kx-pEOn-38">
          <mxGeometry relative="1" as="geometry" />
        </mxCell>
        <mxCell id="bzPX4BFU55xg0Kx-pEOn-48" style="edgeStyle=none;curved=0;rounded=0;orthogonalLoop=1;jettySize=auto;html=1;exitX=0;exitY=0.5;exitDx=0;exitDy=0;entryX=0;entryY=0.5;entryDx=0;entryDy=0;fontSize=12;startSize=8;endSize=8;" edge="1" parent="1" source="bzPX4BFU55xg0Kx-pEOn-36" target="bzPX4BFU55xg0Kx-pEOn-43">
          <mxGeometry relative="1" as="geometry">
            <Array as="points">
              <mxPoint x="1080" y="1379" />
              <mxPoint x="1080" y="1668" />
            </Array>
          </mxGeometry>
        </mxCell>
        <mxCell id="bzPX4BFU55xg0Kx-pEOn-36" value="k&amp;lt;=2*i" style="rhombus;whiteSpace=wrap;html=1;" vertex="1" parent="1">
          <mxGeometry x="1140" y="1339" width="80" height="80" as="geometry" />
        </mxCell>
        <mxCell id="bzPX4BFU55xg0Kx-pEOn-41" value="" style="edgeStyle=none;curved=1;rounded=0;orthogonalLoop=1;jettySize=auto;html=1;fontSize=12;startSize=8;endSize=8;" edge="1" parent="1" source="bzPX4BFU55xg0Kx-pEOn-38" target="bzPX4BFU55xg0Kx-pEOn-40">
          <mxGeometry relative="1" as="geometry" />
        </mxCell>
        <mxCell id="bzPX4BFU55xg0Kx-pEOn-38" value="* 출력" style="shape=parallelogram;perimeter=parallelogramPerimeter;whiteSpace=wrap;html=1;fixedSize=1;" vertex="1" parent="1">
          <mxGeometry x="1120" y="1445" width="120" height="60" as="geometry" />
        </mxCell>
        <mxCell id="bzPX4BFU55xg0Kx-pEOn-42" style="edgeStyle=none;curved=0;rounded=0;orthogonalLoop=1;jettySize=auto;html=1;entryX=1;entryY=0.5;entryDx=0;entryDy=0;fontSize=12;startSize=8;endSize=8;" edge="1" parent="1" source="bzPX4BFU55xg0Kx-pEOn-40" target="bzPX4BFU55xg0Kx-pEOn-36">
          <mxGeometry relative="1" as="geometry">
            <Array as="points">
              <mxPoint x="1280" y="1572" />
              <mxPoint x="1280" y="1379" />
            </Array>
          </mxGeometry>
        </mxCell>
        <mxCell id="bzPX4BFU55xg0Kx-pEOn-40" value="k++" style="whiteSpace=wrap;html=1;" vertex="1" parent="1">
          <mxGeometry x="1120" y="1542" width="120" height="60" as="geometry" />
        </mxCell>
        <mxCell id="bzPX4BFU55xg0Kx-pEOn-43" value="개행 처리" style="shape=parallelogram;perimeter=parallelogramPerimeter;whiteSpace=wrap;html=1;fixedSize=1;" vertex="1" parent="1">
          <mxGeometry x="1120" y="1638" width="120" height="60" as="geometry" />
        </mxCell>
        <mxCell id="bzPX4BFU55xg0Kx-pEOn-50" style="edgeStyle=none;curved=0;rounded=0;orthogonalLoop=1;jettySize=auto;html=1;entryX=1;entryY=0.5;entryDx=0;entryDy=0;fontSize=12;startSize=8;endSize=8;" edge="1" parent="1" source="bzPX4BFU55xg0Kx-pEOn-47" target="bzPX4BFU55xg0Kx-pEOn-25">
          <mxGeometry relative="1" as="geometry">
            <Array as="points">
              <mxPoint x="1320" y="1764" />
              <mxPoint x="1320" y="802" />
            </Array>
          </mxGeometry>
        </mxCell>
        <mxCell id="bzPX4BFU55xg0Kx-pEOn-47" value="i++" style="whiteSpace=wrap;html=1;" vertex="1" parent="1">
          <mxGeometry x="1120" y="1734" width="120" height="60" as="geometry" />
        </mxCell>
        <mxCell id="bzPX4BFU55xg0Kx-pEOn-51" style="edgeStyle=none;curved=0;rounded=0;orthogonalLoop=1;jettySize=auto;html=1;entryX=0;entryY=0.5;entryDx=0;entryDy=0;entryPerimeter=0;fontSize=12;startSize=8;endSize=8;" edge="1" parent="1" source="bzPX4BFU55xg0Kx-pEOn-25" target="bzPX4BFU55xg0Kx-pEOn-3">
          <mxGeometry relative="1" as="geometry">
            <Array as="points">
              <mxPoint x="1040" y="802" />
              <mxPoint x="1040" y="1860" />
            </Array>
          </mxGeometry>
        </mxCell>
        <mxCell id="bzPX4BFU55xg0Kx-pEOn-52" style="edgeStyle=none;curved=1;rounded=0;orthogonalLoop=1;jettySize=auto;html=1;fontSize=12;startSize=8;endSize=8;" edge="1" parent="1" source="bzPX4BFU55xg0Kx-pEOn-2">
          <mxGeometry relative="1" as="geometry">
            <mxPoint x="1180" y="680" as="targetPoint" />
          </mxGeometry>
        </mxCell>
        <mxCell id="bzPX4BFU55xg0Kx-pEOn-53" style="edgeStyle=none;curved=1;rounded=0;orthogonalLoop=1;jettySize=auto;html=1;fontSize=12;startSize=8;endSize=8;" edge="1" parent="1" source="bzPX4BFU55xg0Kx-pEOn-10">
          <mxGeometry relative="1" as="geometry">
            <mxPoint x="1180" y="760" as="targetPoint" />
          </mxGeometry>
        </mxCell>
        <mxCell id="bzPX4BFU55xg0Kx-pEOn-55" style="edgeStyle=none;curved=1;rounded=0;orthogonalLoop=1;jettySize=auto;html=1;entryX=0.511;entryY=-0.06;entryDx=0;entryDy=0;entryPerimeter=0;fontSize=12;startSize=8;endSize=8;" edge="1" parent="1" source="bzPX4BFU55xg0Kx-pEOn-25" target="bzPX4BFU55xg0Kx-pEOn-26">
          <mxGeometry relative="1" as="geometry" />
        </mxCell>
      </root>
    </mxGraphModel>
  </diagram>
</mxfile>
